<svg width="24" height="19" viewBox="0 0 24 19" fill="none" xmlns="http://www.w3.org/2000/svg">
<path d="M24 11.2286C24 11.4576 23.9157 11.6772 23.7657 11.8392C23.6157 12.0011 23.4122 12.0921 23.2 12.0921H21.6V13.8189C21.6 14.0479 21.5157 14.2675 21.3657 14.4294C21.2156 14.5913 21.0121 14.6823 20.8 14.6823C20.5878 14.6823 20.3843 14.5913 20.2343 14.4294C20.0842 14.2675 20 14.0479 20 13.8189V12.0921H18.3999C18.1878 12.0921 17.9843 12.0011 17.8342 11.8392C17.6842 11.6772 17.5999 11.4576 17.5999 11.2286C17.5999 10.9997 17.6842 10.78 17.8342 10.6181C17.9843 10.4562 18.1878 10.3652 18.3999 10.3652H20V8.63841C20 8.40942 20.0842 8.18981 20.2343 8.02789C20.3843 7.86597 20.5878 7.775 20.8 7.775C21.0121 7.775 21.2156 7.86597 21.3657 8.02789C21.5157 8.18981 21.6 8.40942 21.6 8.63841V10.3652H23.2C23.4122 10.3652 23.6157 10.4562 23.7657 10.6181C23.9157 10.78 24 10.9997 24 11.2286ZM18.2129 17.5801C18.3495 17.7556 18.4159 17.9824 18.3976 18.2107C18.3792 18.439 18.2775 18.6501 18.1149 18.7975C17.9524 18.9449 17.7422 19.0166 17.5306 18.9968C17.3191 18.9769 17.1235 18.8672 16.9869 18.6917C14.9749 16.1058 12.2089 14.6823 9.19984 14.6823C6.19081 14.6823 3.42478 16.1058 1.41276 18.6917C1.27617 18.8671 1.08064 18.9766 0.869193 18.9964C0.657743 19.0161 0.44769 18.9444 0.285243 18.797C0.122796 18.6496 0.0212625 18.4385 0.0029775 18.2103C-0.0153075 17.9821 0.0511543 17.7554 0.187742 17.5801C1.68176 15.6612 3.53978 14.2981 5.6048 13.5685C4.35069 12.7255 3.3851 11.4646 2.85411 9.97656C2.32311 8.48854 2.25561 6.85436 2.66182 5.32125C3.06802 3.78814 3.92583 2.43952 5.10546 1.47943C6.2851 0.519332 7.72237 0 9.19984 0C10.6773 0 12.1146 0.519332 13.2942 1.47943C14.4738 2.43952 15.3317 3.78814 15.7379 5.32125C16.1441 6.85436 16.0766 8.48854 15.5456 9.97656C15.0146 11.4646 14.049 12.7255 12.7949 13.5685C14.8599 14.2981 16.7179 15.6612 18.2129 17.5801ZM9.19984 12.9555C10.2283 12.9555 11.2337 12.6263 12.0888 12.0096C12.944 11.393 13.6105 10.5165 14.0041 9.49098C14.3976 8.46549 14.5006 7.33707 14.3 6.24842C14.0993 5.15977 13.6041 4.15977 12.8768 3.3749C12.1496 2.59002 11.223 2.05552 10.2143 1.83897C9.20561 1.62242 8.16005 1.73356 7.20987 2.15834C6.25968 2.58311 5.44754 3.30243 4.87615 4.22535C4.30476 5.14826 3.99978 6.23332 3.99978 7.3433C4.00137 8.83121 4.54974 10.2577 5.5246 11.3098C6.49945 12.3619 7.82119 12.9537 9.19984 12.9555Z" fill="#00F0FF"/>
</svg>
