<?xml version="1.0" encoding="utf-8"?>
<!-- Generator: Adobe Illustrator 26.0.0, SVG Export Plug-In . SVG Version: 6.00 Build 0)  -->
<svg version="1.1" id="Camada_1" xmlns="http://www.w3.org/2000/svg" xmlns:xlink="http://www.w3.org/1999/xlink" x="0px" y="0px"
	 viewBox="0 0 32 32" style="enable-background:new 0 0 32 32;" xml:space="preserve">
<style type="text/css">
	.st0{fill:#00F0FF;}
</style>
<path class="st0" d="M16,3C8.8,3,3,8.8,3,16c0,2.1,0.5,4.2,1.5,6.1l-1.4,4.3c-0.3,1,0.2,2.2,1.3,2.5c0.4,0.1,0.9,0.1,1.3,0l4.3-1.4
	c6.3,3.4,14.2,1,17.6-5.4s1-14.2-5.4-17.6C20.2,3.5,18.1,3,16,3z M16,27c-1.9,0-3.8-0.5-5.5-1.5c-0.2-0.1-0.5-0.2-0.8-0.1L5,27
	l1.6-4.7c0.1-0.3,0.1-0.6-0.1-0.8c-3-5.3-1.2-12,4-15s12-1.2,15,4s1.2,12-4,15C19.8,26.5,17.9,27,16,27z"/>
</svg>
