<svg width="31" height="33" viewBox="0 0 31 33" fill="none" xmlns="http://www.w3.org/2000/svg">
<path d="M0.465992 16.0311C0.588382 16.129 0.727653 16.2002 0.875854 16.2407C1.02406 16.2812 1.17828 16.2902 1.32973 16.2671C1.48118 16.244 1.62689 16.1894 1.75853 16.1063C1.89017 16.0231 2.00517 15.9132 2.09696 15.7826C2.80231 14.7797 3.71693 13.9656 4.76839 13.4049C5.81986 12.8442 6.97929 12.5523 8.15486 12.5523C9.33043 12.5523 10.4899 12.8442 11.5413 13.4049C12.5928 13.9656 13.5074 14.7797 14.2128 15.7826C14.3984 16.046 14.6744 16.22 14.9803 16.2663C15.2862 16.3126 15.5967 16.2274 15.8437 16.0296C15.9318 15.9597 16.0098 15.8765 16.0753 15.7826C16.7806 14.7797 17.6952 13.9656 18.7467 13.4049C19.7982 12.8442 20.9576 12.5523 22.1332 12.5523C23.3087 12.5523 24.4682 12.8442 25.5196 13.4049C26.5711 13.9656 27.4857 14.7797 28.1911 15.7826C28.3766 16.0462 28.6528 16.2204 28.9588 16.2669C29.2648 16.3133 29.5756 16.2283 29.8228 16.0303C30.0699 15.8324 30.2333 15.5379 30.2768 15.2116C30.3204 14.8852 30.2406 14.5538 30.055 14.2902C29.0238 12.8158 27.6487 11.655 26.0664 10.9232C26.9339 10.0786 27.5416 8.97398 27.8099 7.7544C28.0782 6.53481 27.9945 5.25722 27.5698 4.08928C27.145 2.92135 26.3991 1.91764 25.4299 1.20989C24.4608 0.50214 23.3136 0.123413 22.139 0.123413C20.9644 0.123413 19.8172 0.50214 18.848 1.20989C17.8788 1.91764 17.133 2.92135 16.7082 4.08928C16.2835 5.25722 16.1998 6.53481 16.4681 7.7544C16.7363 8.97398 17.3441 10.0786 18.2115 10.9232C17.0691 11.4501 16.0312 12.2043 15.1535 13.1456C14.2758 12.2043 13.2379 11.4501 12.0954 10.9232C12.9629 10.0786 13.5706 8.97398 13.8389 7.7544C14.1072 6.53481 14.0235 5.25722 13.5987 4.08928C13.174 2.92135 12.4281 1.91764 11.4589 1.20989C10.4897 0.50214 9.34258 0.123413 8.16796 0.123413C6.99335 0.123413 5.84618 0.50214 4.877 1.20989C3.90783 1.91764 3.16193 2.92135 2.7372 4.08928C2.31247 5.25722 2.22875 6.53481 2.49704 7.7544C2.76532 8.97398 3.37307 10.0786 4.24053 10.9232C2.65128 11.6526 1.26939 12.8142 0.232996 14.2917C0.141204 14.4222 0.0744164 14.5708 0.0364479 14.7288C-0.00152067 14.8869 -0.00992697 15.0514 0.0117087 15.2129C0.0333444 15.3744 0.0845985 15.5298 0.162545 15.6702C0.240491 15.8106 0.343602 15.9332 0.465992 16.0311ZM22.1346 2.61294C22.8259 2.61294 23.5016 2.83154 24.0763 3.2411C24.651 3.65066 25.099 4.23278 25.3635 4.91385C25.628 5.59491 25.6973 6.34435 25.5624 7.06737C25.4276 7.79038 25.0947 8.45452 24.6059 8.97579C24.1171 9.49706 23.4944 9.85205 22.8164 9.99586C22.1385 10.1397 21.4358 10.0659 20.7972 9.78376C20.1585 9.50165 19.6127 9.02392 19.2287 8.41097C18.8447 7.79803 18.6397 7.0774 18.6397 6.34021C18.6397 5.35168 19.0079 4.40363 19.6633 3.70463C20.3187 3.00563 21.2077 2.61294 22.1346 2.61294ZM8.15486 2.61294C8.84609 2.61294 9.5218 2.83154 10.0965 3.2411C10.6713 3.65066 11.1192 4.23278 11.3838 4.91385C11.6483 5.59491 11.7175 6.34435 11.5826 7.06737C11.4478 7.79038 11.1149 8.45452 10.6262 8.97579C10.1374 9.49706 9.51464 9.85205 8.83669 9.99586C8.15874 10.1397 7.45602 10.0659 6.8174 9.78376C6.17879 9.50165 5.63295 9.02392 5.24892 8.41097C4.86489 7.79803 4.65992 7.0774 4.65992 6.34021C4.65992 5.35168 5.02814 4.40363 5.68356 3.70463C6.33899 3.00563 7.22794 2.61294 8.15486 2.61294ZM26.0664 27.0747C26.9339 26.2301 27.5416 25.1255 27.8099 23.9059C28.0782 22.6863 27.9945 21.4087 27.5698 20.2408C27.145 19.0729 26.3991 18.0691 25.4299 17.3614C24.4608 16.6536 23.3136 16.2749 22.139 16.2749C20.9644 16.2749 19.8172 16.6536 18.848 17.3614C17.8788 18.0691 17.133 19.0729 16.7082 20.2408C16.2835 21.4087 16.1998 22.6863 16.4681 23.9059C16.7363 25.1255 17.3441 26.2301 18.2115 27.0747C17.0691 27.6016 16.0312 28.3558 15.1535 29.2971C14.2758 28.3558 13.2379 27.6016 12.0954 27.0747C12.9629 26.2301 13.5706 25.1255 13.8389 23.9059C14.1072 22.6863 14.0235 21.4087 13.5987 20.2408C13.174 19.0729 12.4281 18.0691 11.4589 17.3614C10.4897 16.6536 9.34258 16.2749 8.16796 16.2749C6.99335 16.2749 5.84618 16.6536 4.877 17.3614C3.90783 18.0691 3.16193 19.0729 2.7372 20.2408C2.31247 21.4087 2.22875 22.6863 2.49704 23.9059C2.76532 25.1255 3.37307 26.2301 4.24053 27.0747C2.65128 27.8042 1.26939 28.9657 0.232996 30.4432C0.141204 30.5738 0.0744164 30.7223 0.0364479 30.8803C-0.00152067 31.0384 -0.00992697 31.2029 0.0117087 31.3644C0.0333444 31.5259 0.0845985 31.6813 0.162545 31.8217C0.240491 31.9621 0.343602 32.0847 0.465992 32.1826C0.588382 32.2805 0.727653 32.3517 0.875854 32.3922C1.02406 32.4327 1.17828 32.4417 1.32973 32.4186C1.48118 32.3955 1.62689 32.3409 1.75853 32.2578C1.89017 32.1746 2.00517 32.0647 2.09696 31.9341C2.80231 30.9312 3.71693 30.1171 4.76839 29.5564C5.81986 28.9957 6.97929 28.7038 8.15486 28.7038C9.33043 28.7038 10.4899 28.9957 11.5413 29.5564C12.5928 30.1171 13.5074 30.9312 14.2128 31.9341C14.3984 32.1975 14.6744 32.3715 14.9803 32.4178C15.2862 32.4641 15.5967 32.3789 15.8437 32.1811C15.9318 32.1112 16.0098 32.028 16.0753 31.9341C16.7806 30.9312 17.6952 30.1171 18.7467 29.5564C19.7982 28.9957 20.9576 28.7038 22.1332 28.7038C23.3087 28.7038 24.4682 28.9957 25.5196 29.5564C26.5711 30.1171 27.4857 30.9312 28.1911 31.9341C28.3766 32.1977 28.6528 32.3719 28.9588 32.4184C29.2648 32.4648 29.5756 32.3798 29.8228 32.1818C30.0699 31.9839 30.2333 31.6894 30.2768 31.3631C30.3204 31.0367 30.2406 30.7053 30.055 30.4417C29.0238 28.9673 27.6487 27.8065 26.0664 27.0747ZM8.15486 18.7644C8.84609 18.7644 9.5218 18.983 10.0965 19.3926C10.6713 19.8022 11.1192 20.3843 11.3838 21.0654C11.6483 21.7464 11.7175 22.4959 11.5826 23.2189C11.4478 23.9419 11.1149 24.606 10.6262 25.1273C10.1374 25.6486 9.51464 26.0036 8.83669 26.1474C8.15874 26.2912 7.45602 26.2174 6.8174 25.9353C6.17879 25.6532 5.63295 25.1754 5.24892 24.5625C4.86489 23.9495 4.65992 23.2289 4.65992 22.4917C4.65992 21.5032 5.02814 20.5551 5.68356 19.8561C6.33899 19.1571 7.22794 18.7644 8.15486 18.7644ZM22.1346 18.7644C22.8259 18.7644 23.5016 18.983 24.0763 19.3926C24.651 19.8022 25.099 20.3843 25.3635 21.0654C25.628 21.7464 25.6973 22.4959 25.5624 23.2189C25.4276 23.9419 25.0947 24.606 24.6059 25.1273C24.1171 25.6486 23.4944 26.0036 22.8164 26.1474C22.1385 26.2912 21.4358 26.2174 20.7972 25.9353C20.1585 25.6532 19.6127 25.1754 19.2287 24.5625C18.8447 23.9495 18.6397 23.2289 18.6397 22.4917C18.6397 21.5032 19.0079 20.5551 19.6633 19.8561C20.3187 19.1571 21.2077 18.7644 22.1346 18.7644Z" fill="#ABD3FF"/>
</svg>
