<?xml version="1.0" encoding="utf-8"?>
<!-- Generator: Adobe Illustrator 26.0.0, SVG Export Plug-In . SVG Version: 6.00 Build 0)  -->
<svg version="1.1" id="Camada_1" xmlns="http://www.w3.org/2000/svg" xmlns:xlink="http://www.w3.org/1999/xlink" x="0px" y="0px"
	 viewBox="0 0 32 32" style="enable-background:new 0 0 32 32;" xml:space="preserve">
<style type="text/css">
	.st0{fill:#FFE36E;}
</style>
<path class="st0" d="M30.5,9.5C30,9.1,29.4,9,28.8,9.3l-6.3,3.1l-5.2-8.7c-0.4-0.7-1.4-0.9-2.1-0.5c-0.2,0.1-0.4,0.3-0.5,0.5
	l-5.2,8.7L3.2,9.3c-0.7-0.4-1.7-0.1-2,0.7C1,10.4,1,10.8,1.1,11.1l4.6,14.2C5.9,25.8,6.4,26.1,7,26c0.1,0,0.1-0.1,0.2-0.1
	c0,0,3.2-1.9,8.8-1.9s8.8,1.8,8.8,1.9c0.5,0.3,1.1,0.1,1.4-0.3c0-0.1,0.1-0.1,0.1-0.2l4.6-14.2C31.1,10.6,30.9,9.9,30.5,9.5z
	 M24.8,23.6C23.2,23,20.3,22,16,22s-7.2,1-8.8,1.6l-3.9-12L9,14.4c0.7,0.3,1.6,0.1,2-0.6L16,5.5l5.1,8.4c0.4,0.7,1.3,0.9,2,0.6
	l5.6-2.8L24.8,23.6z M22,19.6c-0.1,0.5-0.5,0.8-1,0.8c-0.1,0-0.1,0-0.2,0c-3.2-0.5-6.5-0.5-9.7,0c-0.5,0.1-1.1-0.3-1.2-0.8
	c-0.1-0.5,0.3-1.1,0.8-1.2c3.4-0.6,6.9-0.6,10.3,0C21.7,18.5,22.1,19.1,22,19.6L22,19.6z"/>
</svg>
