<?xml version="1.0" encoding="utf-8"?>
<!-- Generator: Adobe Illustrator 26.0.0, SVG Export Plug-In . SVG Version: 6.00 Build 0)  -->
<svg version="1.1" id="Camada_1" xmlns="http://www.w3.org/2000/svg" xmlns:xlink="http://www.w3.org/1999/xlink" x="0px" y="0px"
	 viewBox="0 0 32 32" style="enable-background:new 0 0 32 32;" xml:space="preserve">
<style type="text/css">
	.st0{fill:#00F0FF;}
</style>
<path class="st0" d="M28.4,9.2l-5.6-5.6c-0.8-0.8-2-0.8-2.8,0c0,0,0,0,0,0L4.6,19C4.2,19.4,4,19.9,4,20.4V26c0,1.1,0.9,2,2,2h5.6
	c0.5,0,1-0.2,1.4-0.6L28.4,12C29.2,11.2,29.2,10,28.4,9.2C28.4,9.2,28.4,9.2,28.4,9.2z M6.4,20L17,9.4l2.1,2.1L8.5,22.1L6.4,20z
	 M6,22.4L9.6,26H6V22.4z M12,25.6l-2.1-2.1l10.6-10.6l2.1,2.1L12,25.6z M24,13.6L18.4,8l3-3l5.6,5.6L24,13.6z"/>
</svg>
