<svg width="37" height="31" viewBox="0 0 37 31" fill="none" xmlns="http://www.w3.org/2000/svg">
<path d="M35.9081 4.66954C34.7495 2.58911 31.692 2.12066 27.0488 3.30362C24.8992 1.57246 22.3265 0.503914 19.623 0.219356C16.9195 -0.0652011 14.1935 0.44564 11.7548 1.69385C9.31609 2.94206 7.26237 4.8776 5.82696 7.28058C4.39155 9.68357 3.63198 12.4577 3.63454 15.2878C3.63473 15.9369 3.67419 16.5854 3.75267 17.2294C-0.440724 21.7546 -0.380147 24.436 0.439147 25.906C1.21149 27.3003 2.82282 27.906 4.94299 27.906C6.41503 27.8743 7.87839 27.6625 9.30297 27.2751C11.4528 29.0045 14.0252 30.0716 16.728 30.355C19.4309 30.6384 22.1558 30.1269 24.5936 28.8786C27.0313 27.6302 29.0842 25.695 30.5191 23.2926C31.954 20.8903 32.7134 18.117 32.7112 15.2878C32.7115 14.6418 32.6725 13.9964 32.5945 13.3556C34.4876 11.3051 35.7475 9.3572 36.1761 7.69002C36.4714 6.53546 36.3821 5.51969 35.9081 4.66954ZM18.1728 2.66955C20.9169 2.67249 23.5789 3.6442 25.7243 5.42605C27.8697 7.20789 29.3717 9.69461 29.9852 12.4802C27.4016 15.0133 23.9049 17.6111 20.5853 19.5985C16.4131 22.0921 12.7937 23.6473 9.90722 24.4991C8.12942 22.7721 6.89199 20.5277 6.35603 18.0581C5.82007 15.5885 6.01041 13.008 6.90227 10.6526C7.79413 8.29717 9.34619 6.27598 11.3564 4.85214C13.3666 3.4283 15.7418 2.66777 18.1728 2.66955ZM2.53509 24.6394C2.31398 24.2435 2.43665 23.4975 2.87128 22.589C3.30108 21.7378 3.824 20.9412 4.42961 20.2152C5.02992 22.0267 5.95494 23.703 7.15554 25.1552C4.54319 25.6126 2.91369 25.3208 2.53509 24.6394ZM18.1728 27.906C16.1301 27.9081 14.1205 27.3686 12.3333 26.3382C15.6136 25.1298 18.7788 23.6059 21.7877 21.7861C25.0558 19.8319 27.9483 17.7136 30.279 15.6221C30.1927 18.9079 28.8798 22.0291 26.6193 24.3228C24.3588 26.6164 21.3288 27.9019 18.1728 27.906ZM33.8348 7.03703C33.5774 8.03229 32.8974 9.17108 31.9221 10.3698C31.3234 8.55615 30.3983 6.87795 29.1962 5.42505C31.3482 5.05439 33.3411 5.08278 33.8152 5.93609C33.9515 6.18372 33.959 6.55438 33.8348 7.03703Z" fill="#ABD3FF"/>
</svg>
