<svg width="32" height="33" viewBox="0 0 32 33" fill="none" xmlns="http://www.w3.org/2000/svg">
<path d="M30.4553 13.0006L17.4144 0.696544C17.4081 0.690982 17.4021 0.684991 17.3965 0.678613C16.9164 0.241961 16.2907 0 15.6417 0C14.9927 0 14.367 0.241961 13.8869 0.678613L13.869 0.696544L0.842766 13.0006C0.577055 13.2449 0.364955 13.5418 0.219888 13.8723C0.0748207 14.2028 -5.48415e-05 14.5599 3.01371e-08 14.9209V29.9912C3.01371e-08 30.6829 0.274789 31.3463 0.763916 31.8355C1.25304 32.3246 1.91644 32.5994 2.60817 32.5994H10.4327C11.1244 32.5994 11.7878 32.3246 12.2769 31.8355C12.7661 31.3463 13.0409 30.6829 13.0409 29.9912V22.1667H18.2572V29.9912C18.2572 30.6829 18.532 31.3463 19.0211 31.8355C19.5103 32.3246 20.1737 32.5994 20.8654 32.5994H28.6899C29.3816 32.5994 30.045 32.3246 30.5342 31.8355C31.0233 31.3463 31.2981 30.6829 31.2981 29.9912V14.9209C31.2981 14.5599 31.2233 14.2028 31.0782 13.8723C30.9331 13.5418 30.721 13.2449 30.4553 13.0006ZM28.6899 29.9912H20.8654V22.1667C20.8654 21.475 20.5906 20.8116 20.1015 20.3224C19.6123 19.8333 18.9489 19.5585 18.2572 19.5585H13.0409C12.3491 19.5585 11.6857 19.8333 11.1966 20.3224C10.7075 20.8116 10.4327 21.475 10.4327 22.1667V29.9912H2.60817V14.9209L2.6261 14.9046L15.649 2.6054L28.6736 14.9013L28.6915 14.9176L28.6899 29.9912Z" fill="#ABD3FF"/>
</svg>
