<?xml version="1.0" encoding="utf-8"?>
<!-- Generator: Adobe Illustrator 26.0.0, SVG Export Plug-In . SVG Version: 6.00 Build 0)  -->
<svg version="1.1" id="Camada_1" xmlns="http://www.w3.org/2000/svg" xmlns:xlink="http://www.w3.org/1999/xlink" x="0px" y="0px"
	 viewBox="0 0 32 32" style="enable-background:new 0 0 32 32;" xml:space="preserve">
<style type="text/css">
	.st0{fill:#FFFFFF;}
</style>
<path class="st0" d="M17.5,10c0-0.6,0.4-1,1-1h12c0.6,0,1,0.4,1,1s-0.4,1-1,1h-12C17.9,11,17.5,10.6,17.5,10z M30.5,15h-12
	c-0.6,0-1,0.4-1,1s0.4,1,1,1h12c0.6,0,1-0.4,1-1S31.1,15,30.5,15z M30.5,21h-9c-0.6,0-1,0.4-1,1s0.4,1,1,1h9c0.6,0,1-0.4,1-1
	S31.1,21,30.5,21z M18.5,23.8c0.1,0.5-0.2,1.1-0.7,1.2l0,0c-0.1,0-0.2,0-0.2,0c-0.5,0-0.9-0.3-1-0.8c-0.8-3-3.8-5.2-7-5.2
	s-6.3,2.3-7,5.2c-0.1,0.5-0.7,0.9-1.2,0.7s-1-0.6-0.9-1.1c0.7-2.7,2.7-4.9,5.3-6c-2.6-2-3.1-5.8-1.1-8.4s5.8-3.1,8.4-1.1
	s3.1,5.8,1.1,8.4c-0.3,0.4-0.7,0.8-1.1,1.1C15.7,18.8,17.8,21,18.5,23.8z M9.5,17c2.2,0,4-1.8,4-4s-1.8-4-4-4s-4,1.8-4,4
	S7.3,17,9.5,17z"/>
</svg>
