<?xml version="1.0" encoding="utf-8"?>
<!-- Generator: Adobe Illustrator 26.0.0, SVG Export Plug-In . SVG Version: 6.00 Build 0)  -->
<svg version="1.1" id="Camada_1" xmlns="http://www.w3.org/2000/svg" xmlns:xlink="http://www.w3.org/1999/xlink" x="0px" y="0px"
	 viewBox="0 0 32 32" style="enable-background:new 0 0 32 32;" xml:space="preserve">
<style type="text/css">
	.st0{fill:#8CEAFF;}
</style>
<path class="st0" d="M16,10c-3.3,0-6,2.7-6,6s2.7,6,6,6s6-2.7,6-6C22,12.7,19.3,10,16,10z M16,20c-2.2,0-4-1.8-4-4s1.8-4,4-4
	s4,1.8,4,4S18.2,20,16,20z M29.7,13.4c-0.1-0.3-0.2-0.5-0.5-0.7l-3.7-2.1l0-4.2c0-0.3-0.1-0.6-0.4-0.8c-1.4-1.1-2.9-2-4.6-2.6
	C20.3,3,20,3,19.8,3.1L16,5.2l-3.8-2.1C12,3,11.7,3,11.4,3C9.7,3.6,8.2,4.5,6.8,5.6C6.6,5.8,6.5,6.1,6.5,6.4l0,4.2l-3.7,2.1
	c-0.3,0.1-0.4,0.4-0.5,0.7c-0.3,1.7-0.3,3.5,0,5.2c0.1,0.3,0.2,0.5,0.5,0.7l3.7,2.1l0,4.2c0,0.3,0.1,0.6,0.4,0.8
	c1.4,1.1,2.9,2,4.6,2.6c0.3,0.1,0.6,0.1,0.8-0.1l3.8-2.1l3.8,2.1c0.1,0.1,0.3,0.1,0.5,0.1c0.1,0,0.2,0,0.3-0.1
	c1.7-0.6,3.2-1.4,4.6-2.6c0.2-0.2,0.4-0.5,0.4-0.8l0-4.2l3.7-2.1c0.3-0.1,0.4-0.4,0.5-0.7C30.1,16.9,30.1,15.1,29.7,13.4z
	 M27.9,17.8l-3.6,2c-0.2,0.1-0.3,0.2-0.4,0.4c-0.1,0.1-0.1,0.3-0.2,0.4c-0.1,0.2-0.2,0.3-0.2,0.5l0,4c-1,0.8-2,1.4-3.2,1.8l-3.6-2
	c-0.1-0.1-0.3-0.1-0.5-0.1h0c-0.2,0-0.3,0-0.5,0c-0.2,0-0.4,0-0.5,0.1l-3.6,2c-1.1-0.4-2.2-1-3.2-1.8l0-4c0-0.2-0.1-0.4-0.2-0.5
	c-0.1-0.1-0.2-0.2-0.2-0.4C8,20,7.9,19.9,7.7,19.8l-3.6-2c-0.2-1.2-0.2-2.4,0-3.5l3.6-2C7.9,12.1,8,12,8.1,11.8
	c0.1-0.1,0.1-0.3,0.2-0.4c0.1-0.2,0.2-0.3,0.2-0.5l0-4c1-0.8,2-1.4,3.2-1.8l3.6,2c0.2,0.1,0.3,0.1,0.5,0.1c0.2,0,0.3,0,0.5,0
	c0.2,0,0.4,0,0.5-0.1l3.6-2c1.1,0.4,2.2,1,3.2,1.8l0,4c0,0.2,0.1,0.4,0.2,0.5c0.1,0.1,0.2,0.2,0.2,0.4c0.1,0.2,0.2,0.3,0.4,0.4
	l3.6,2C28,15.4,28,16.6,27.9,17.8L27.9,17.8z"/>
</svg>
