<?xml version="1.0" encoding="utf-8"?>
<!-- Generator: Adobe Illustrator 26.0.0, SVG Export Plug-In . SVG Version: 6.00 Build 0)  -->
<svg version="1.1" id="Camada_1" xmlns="http://www.w3.org/2000/svg" xmlns:xlink="http://www.w3.org/1999/xlink" x="0px" y="0px"
	 viewBox="0 0 32 32" style="enable-background:new 0 0 32 32;" xml:space="preserve">
<style type="text/css">
	.st0{fill:#E087FF;}
</style>
<path class="st0" d="M14,27c0,0.6-0.4,1-1,1H6c-1.1,0-2-0.9-2-2V6c0-1.1,0.9-2,2-2h7c0.6,0,1,0.4,1,1s-0.4,1-1,1H6v20h7
	C13.6,26,14,26.4,14,27z M27.7,15.3l-5-5c-0.4-0.4-1-0.4-1.4,0c-0.4,0.4-0.4,1,0,1.4l3.3,3.3H13c-0.6,0-1,0.4-1,1c0,0.6,0.4,1,1,1
	h11.6l-3.3,3.3c-0.4,0.4-0.4,1,0,1.4s1,0.4,1.4,0l5-5C28.1,16.3,28.1,15.7,27.7,15.3C27.7,15.3,27.7,15.3,27.7,15.3z"/>
</svg>
