<?xml version="1.0" encoding="utf-8"?>
<!-- Generator: Adobe Illustrator 26.0.0, SVG Export Plug-In . SVG Version: 6.00 Build 0)  -->
<svg version="1.1" id="Camada_1" xmlns="http://www.w3.org/2000/svg" xmlns:xlink="http://www.w3.org/1999/xlink" x="0px" y="0px"
	 viewBox="0 0 32 32" style="enable-background:new 0 0 32 32;" xml:space="preserve">
<style type="text/css">
	.st0{fill:#00F0FF;}
</style>
<path class="st0" d="M29.2,10c-0.6-0.6-1.4-1-2.2-1h-7V7c0-2.8-2.2-5-5-5c-0.4,0-0.7,0.2-0.9,0.6L9.4,12H4c-1.1,0-2,0.9-2,2v11
	c0,1.1,0.9,2,2,2h21.5c1.5,0,2.8-1.1,3-2.6l1.5-12C30.1,11.5,29.8,10.7,29.2,10z M4,14h5v11H4V14z M28,12.1l-1.5,12
	c-0.1,0.5-0.5,0.9-1,0.9H11V13.2l4.6-9.2C17,4.3,18,5.6,18,7v3c0,0.6,0.4,1,1,1h8c0.6,0,1,0.4,1,1C28,12,28,12.1,28,12.1z"/>
</svg>
