<?xml version="1.0" encoding="utf-8"?>
<!-- Generator: Adobe Illustrator 26.0.0, SVG Export Plug-In . SVG Version: 6.00 Build 0)  -->
<svg version="1.1" id="Camada_1" xmlns="http://www.w3.org/2000/svg" xmlns:xlink="http://www.w3.org/1999/xlink" x="0px" y="0px"
	 viewBox="0 0 32 32" style="enable-background:new 0 0 32 32;" xml:space="preserve">
<style type="text/css">
	.st0{fill:#E3A5FF;}
</style>
<path class="st0" d="M4,8c0-0.6,0.4-1,1-1h22c0.6,0,1,0.4,1,1s-0.4,1-1,1H5C4.4,9,4,8.6,4,8z M5,17h9c0.6,0,1-0.4,1-1
	c0-0.6-0.4-1-1-1H5c-0.6,0-1,0.4-1,1C4,16.6,4.4,17,5,17z M16,23H5c-0.6,0-1,0.4-1,1s0.4,1,1,1h11c0.6,0,1-0.4,1-1S16.6,23,16,23z
	 M29.7,24.7c-0.4,0.4-1,0.4-1.4,0c0,0,0,0,0,0l-2.5-2.5c-2.3,1.5-5.4,0.9-6.9-1.4s-0.9-5.4,1.4-6.9s5.4-0.9,6.9,1.4
	c1.1,1.7,1.1,3.8,0,5.5l2.5,2.5C30.1,23.7,30.1,24.3,29.7,24.7C29.7,24.7,29.7,24.7,29.7,24.7z M23,21c1.7,0,3-1.3,3-3s-1.3-3-3-3
	s-3,1.3-3,3S21.3,21,23,21z"/>
</svg>
