<?xml version="1.0" encoding="utf-8"?>
<!-- Generator: Adobe Illustrator 26.0.0, SVG Export Plug-In . SVG Version: 6.00 Build 0)  -->
<svg version="1.1" id="Camada_1" xmlns="http://www.w3.org/2000/svg" xmlns:xlink="http://www.w3.org/1999/xlink" x="0px" y="0px"
	 viewBox="0 0 32 32" style="enable-background:new 0 0 32 32;" xml:space="preserve">
<style type="text/css">
	.st0{fill:#C1C1C1;}
</style>
<path class="st0" d="M27,4h-8c-0.3,0-0.6,0.1-0.8,0.4l-8,10.4L9,13.6c-0.8-0.8-2-0.8-2.8,0l0,0l-1.6,1.6c-0.8,0.8-0.8,2,0,2.8l0,0
	l2.5,2.5L3.6,24c-0.8,0.8-0.8,2,0,2.8l0,0l1.6,1.6c0.8,0.8,2,0.8,2.8,0l3.5-3.5l2.5,2.5c0.8,0.8,2,0.8,2.8,0l0,0l1.6-1.6
	c0.8-0.8,0.8-2,0-2.8l0,0l-1.2-1.2l10.4-8c0.2-0.2,0.4-0.5,0.4-0.8V5C28,4.4,27.6,4,27,4z M6.6,27L5,25.4l3.5-3.5l1.6,1.6L6.6,27z
	 M15.4,26L6,16.6L7.6,15l9.4,9.4L15.4,26z M26,12.5l-10.2,7.9L14.4,19l6.3-6.3c0.4-0.4,0.4-1,0-1.4s-1-0.4-1.4,0l0,0L13,17.6
	l-1.4-1.4L19.5,6H26V12.5z"/>
</svg>
