<svg width="32" height="33" viewBox="0 0 32 33" fill="none" xmlns="http://www.w3.org/2000/svg">
<path d="M28.9984 0.0192261H2.63622C1.93705 0.0192261 1.26652 0.297224 0.77213 0.792064C0.277743 1.2869 0 1.95805 0 2.65786V12.3499C0 27.1279 12.4924 32.0308 14.9935 32.8636C15.5277 33.0455 16.1069 33.0455 16.6411 32.8636C19.1455 32.0308 31.6346 27.1279 31.6346 12.3499V2.65786C31.6346 1.95805 31.3569 1.2869 30.8625 0.792064C30.3681 0.297224 29.6976 0.0192261 28.9984 0.0192261ZM28.9984 12.3532C28.9984 25.2858 18.0663 29.6066 15.8173 30.3586C13.5881 29.6148 2.63622 25.2973 2.63622 12.3532V2.65786H28.9984V12.3532Z" fill="#ABD3FF"/>
</svg>
