<?xml version="1.0" encoding="utf-8"?>
<!-- Generator: Adobe Illustrator 26.0.0, SVG Export Plug-In . SVG Version: 6.00 Build 0)  -->
<svg version="1.1" id="Camada_1" xmlns="http://www.w3.org/2000/svg" xmlns:xlink="http://www.w3.org/1999/xlink" x="0px" y="0px"
	 viewBox="0 0 32 32" style="enable-background:new 0 0 32 32;" xml:space="preserve">
<style type="text/css">
	.st0{fill:#FF5A5A;}
</style>
<path class="st0" d="M27,6h-5V5c0-1.7-1.3-3-3-3h-6c-1.7,0-3,1.3-3,3v1H5C4.4,6,4,6.4,4,7s0.4,1,1,1h1v18c0,1.1,0.9,2,2,2h16
	c1.1,0,2-0.9,2-2V8h1c0.6,0,1-0.4,1-1S27.6,6,27,6z M12,5c0-0.6,0.4-1,1-1h6c0.6,0,1,0.4,1,1v1h-8V5z M24,26H8V8h16V26z M14,13v8
	c0,0.6-0.4,1-1,1s-1-0.4-1-1v-8c0-0.6,0.4-1,1-1S14,12.4,14,13z M20,13v8c0,0.6-0.4,1-1,1s-1-0.4-1-1v-8c0-0.6,0.4-1,1-1
	S20,12.4,20,13z"/>
</svg>
