<?xml version="1.0" encoding="utf-8"?>
<!-- Generator: Adobe Illustrator 26.0.0, SVG Export Plug-In . SVG Version: 6.00 Build 0)  -->
<svg version="1.1" id="Camada_1" xmlns="http://www.w3.org/2000/svg" xmlns:xlink="http://www.w3.org/1999/xlink" x="0px" y="0px"
	 viewBox="0 0 32 32" style="enable-background:new 0 0 32 32;" xml:space="preserve">
<style type="text/css">
	.st0{fill:#E087FF;}
</style>
<path class="st0" d="M28,19v7c0,1.1-0.9,2-2,2H6c-1.1,0-2-0.9-2-2v-7c0-0.6,0.4-1,1-1s1,0.4,1,1v7h20v-7c0-0.6,0.4-1,1-1
	S28,18.4,28,19z M11.7,10.7L15,7.4V19c0,0.6,0.4,1,1,1c0.6,0,1-0.4,1-1V7.4l3.3,3.3c0.4,0.4,1,0.4,1.4,0c0.4-0.4,0.4-1,0-1.4l-5-5
	c-0.4-0.4-1-0.4-1.4,0c0,0,0,0,0,0l-5,5c-0.4,0.4-0.4,1,0,1.4S11.3,11.1,11.7,10.7z"/>
</svg>
