<?xml version="1.0" encoding="utf-8"?>
<!-- Generator: Adobe Illustrator 26.0.0, SVG Export Plug-In . SVG Version: 6.00 Build 0)  -->
<svg version="1.1" id="Camada_1" xmlns="http://www.w3.org/2000/svg" xmlns:xlink="http://www.w3.org/1999/xlink" x="0px" y="0px"
	 viewBox="0 0 32 32" style="enable-background:new 0 0 32 32;" xml:space="preserve">
<style type="text/css">
	.st0{fill:#FF5A5A;}
</style>
<path class="st0" d="M31.5,29.3c0.6,0.6,0.6,1.6,0,2.3c-0.6,0.6-1.6,0.6-2.3,0l0,0L16,18.3L2.7,31.5c-0.6,0.6-1.6,0.6-2.3,0
	c-0.6-0.6-0.6-1.6,0-2.3L13.7,16L0.5,2.7c-0.6-0.6-0.6-1.6,0-2.3s1.6-0.6,2.3,0l0,0L16,13.7L29.3,0.5c0.6-0.6,1.6-0.6,2.3,0
	c0.6,0.6,0.6,1.6,0,2.3l0,0L18.3,16L31.5,29.3z"/>
</svg>
