<svg id="Layer_1" data-name="Layer 1" xmlns="http://www.w3.org/2000/svg" viewBox="0 0 623.25 736.23"><defs><style>.cls-1,.cls-2{fill:#fff;}.cls-2{fill-rule:evenodd;}</style></defs><path class="cls-1" d="M370.1,523.1c-3.3-23.1-6.8-46.3-9.9-69.4-8.3-61.7-17.1-123.4-24.4-185.2-2.3-19.4-.4-39.2-.4-59.3h61q6.75,92.7,13.6,185.6h4.2q6.6-92.55,13.2-185.6H513q6.75,92.55,13.6,185.6h4.2c4.5-61.7,9-123.4,13.6-185.5h61.2c0,19.6,2,39.3-.3,58.3-10.6,85.3-22.4,170.4-33.8,255.6H486.9a79.89,79.89,0,0,1-1.4-8.3q-6.15-88-12.4-176.1c-.2-2.3-1.3-4.5-2-6.7l-2.8.4L454.8,523.2H370.1Z" transform="translate(-334.15 -81.67)"/><path class="cls-1" d="M776.3,523.1V208.7H896.4c30.2,0,48.4,17,49.2,47.1.7,25.6.4,51.3.1,77-.2,20.5-8.6,36.5-28.7,45.7,4.8,12.9,9.4,25.5,14,38,4.3,11.6,7.7,23.7,13.3,34.7,11.6,23,10.5,47.4,9.7,71.9H893.1c-12.8-39.3-25.5-78.6-38.5-117.9-.8-2.3-4.3-3.6-6.6-5.4l-2.3,1.8V523.2H776.3Zm70-179.2h21.9c5.6,0,8.2-3,8.2-8.5,0-20.6.2-41.2-.3-61.7-.1-2.7-3.4-7.5-5.7-7.7-7.9-1-16-.4-24.2-.4Z" transform="translate(-334.15 -81.67)"/><path class="cls-1" d="M591.8,523.1c-1.8-32.2.4-64,5.6-95.9,11.2-69.2,21.2-138.7,31.7-208,.5-3.3,1.2-6.6,1.8-10.1h94.6c3.9,25.6,7.8,50.9,11.7,76.2,8.9,58.8,18.6,117.4,26.3,176.4,2.7,20.2.7,41,.8,61.5H700c-1.9-20.3-3.7-40.6-5.6-60.9H661.6c-1.9,20.7-3.8,40.8-5.7,60.9Zm97.3-127.2c-3.5-33.2-4.8-65.9-9.3-98.3l-3.7.1c-2.9,32.5-5.8,65.1-8.8,98.1h21.8Z" transform="translate(-334.15 -81.67)"/><path class="cls-1" d="M664,817.8c.1-3.3.3-6.6.3-9.9V536.4h35.9c18.8,0,18.8,0,24.6,18.1q15.6,48.75,31.2,97.6c.8,2.5,1.9,4.8,2.9,7.2l2.5-.4v-122h55.3V810.3a63.62,63.62,0,0,1-.8,7.5H761.2a8.1,8.1,0,0,0,0-2.2q-18.45-58.05-36.9-116.2c-.5-1.7-1.8-3.2-2.7-4.7l-3,.5V817.8Z" transform="translate(-334.15 -81.67)"/><path class="cls-1" d="M528.7,817.8c-22.5-9.7-28.9-28.1-28.7-51,.4-60.5,0-121,.3-181.5.1-8.9,2-18.1,4.5-26.7,3.6-12,21-22.9,33.1-22.5,24.5,1,49.2,1.3,73.6,0,21.3-1.2,38.5,16.1,40.3,36.1.4,4.3.7,8.6.7,12.9q0,91.95-.1,183.8a100.68,100.68,0,0,1-2.6,21.8c-3.1,13.9-14,21-25.5,27.2Zm33.9-140.6v79c0,9.6,1.2,10.8,11.1,10.8H579c10.3,0,11.3-1,11.3-11.3V603.8c0-17.3,0-17.3-17.5-17.2-8.7,0-10.1,1.4-10.1,10.1Q562.55,637.05,562.6,677.2Z" transform="translate(-334.15 -81.67)"/><path class="cls-1" d="M829.7,817.8V536.6H957.4v57.8H892.7v34.2c5.8,0,11.1-.1,16.3,0,16.1.2,32.2.4,48.3.7V687H892.6v72.2c6.8,0,13-.1,19.3,0,15.1.2,30.2.5,45.4.8v57.8Z" transform="translate(-334.15 -81.67)"/><path class="cls-1" d="M337.2,817.8c-.1-16.2-.5-32.4-.3-48.5,0-2.8,1.6-5.8,2.9-8.5q37.95-79.8,76-159.6c.8-1.6,1.4-3.2,2.6-5.8h-81V537H489c0,16.8.1,33.1-.1,49.5,0,2.1-1.5,4.2-2.5,6.3Q447.7,674,409,755c-.5,1.1-1,2.2-1.9,4.4h82.1v58.5h-152Z" transform="translate(-334.15 -81.67)"/><path class="cls-2" d="M952.9,84.3l-23,70.8v40.1h-29V155L878.8,84.2h28.8c4.4,21.7,7,36.3,7.6,43.8q2.7-17.7,8.7-43.8h29Zm-77.7,0v22.2H856.8v88.8H825.4V106.5H806.8V84.3Zm-75.2,0v74.1a132.67,132.67,0,0,1-.9,17.8,22.54,22.54,0,0,1-5.3,10.7,27.7,27.7,0,0,1-11.5,8.2,46.7,46.7,0,0,1-17,2.8,51.41,51.41,0,0,1-19-3.3A28.12,28.12,0,0,1,734,186a23.13,23.13,0,0,1-4.9-11.2c-.5-3.9-.8-12.1-.8-24.6v-66h31.4v83.2a32.56,32.56,0,0,0,.8,9.3,3.42,3.42,0,0,0,3.6,2,3.72,3.72,0,0,0,2.3-.5,3.53,3.53,0,0,0,1.5-1.7,42.58,42.58,0,0,0,.8-10.7V84.2ZM676.1,103.2v73.1c4.5,0,7.1-.8,8.2-2.5a34.85,34.85,0,0,0,1.6-13.6V117a52.59,52.59,0,0,0-.5-9.7,3.7,3.7,0,0,0-.8-1.8,4.71,4.71,0,0,0-1.5-1.3,15.32,15.32,0,0,0-7-1M644.8,84.3h23.4a156.37,156.37,0,0,1,30.6,1.9A24.71,24.71,0,0,1,711,92.5a20.45,20.45,0,0,1,5.2,9.7,135.57,135.57,0,0,1,1,21.1v38.9a82.73,82.73,0,0,1-1.5,19.9,15.28,15.28,0,0,1-5.3,7.9,23.12,23.12,0,0,1-9.4,4,94.87,94.87,0,0,1-16.8,1.1H644.8V84.3Zm-24.4,27.3h15.8v8.1h-6.5v7.8h5.7v7.7h-5.7v17.1h-9.3Zm-12.8,10.5a14.52,14.52,0,0,0-.2-3.6,2.09,2.09,0,0,0-.4-.6,1.85,1.85,0,0,0-.7-.2.73.73,0,0,0-.6.2,1.21,1.21,0,0,0-.5.5,12,12,0,0,0-.4,3.8v19a20.67,20.67,0,0,0,.2,4.3.92.92,0,0,0,.4.6,1.36,1.36,0,0,0,1.5,0,1,1,0,0,0,.4-.7,23.29,23.29,0,0,0,.2-4.6V122.1Zm9.3,13.4v-7.1a86.17,86.17,0,0,0-.2-8.8,11,11,0,0,0-1.6-4.7,8.56,8.56,0,0,0-3.6-3.2,13,13,0,0,0-5.1-1.1,12,12,0,0,0-5.3,1.1,8.56,8.56,0,0,0-3.6,3.2,11,11,0,0,0-1.6,4.7c0,1.7-.2,4.6-.2,8.7v7.1a86.17,86.17,0,0,0,.2,8.8,10.12,10.12,0,0,0,1.6,4.6,8.56,8.56,0,0,0,3.6,3.2,13.1,13.1,0,0,0,5.2,1.1,14,14,0,0,0,5.3-1.1,8.56,8.56,0,0,0,3.6-3.2,11,11,0,0,0,1.6-4.7c0-1.7.1-4.6.1-8.6M586,84.3v88.8h18.9v22.1H554.6V84.2H586Zm-57.9,0v88.8H547v22.1H496.7V84.2h31.4Zm-71.3,71.3c-1.5-12.6-3.1-28.2-4.7-46.8-3.1,21.3-5,36.9-5.9,46.7Zm16.6-71.3,17.8,110.9H459.1l-1.7-19.9H446.3l-1.6,19.9H412.2L428.1,84.3Zm-65.2,48.3H377V113.3a32.2,32.2,0,0,0-1-10.7c-.6-1.4-2.1-2.1-4.4-2.1s-4.2.8-4.9,2.5a36.66,36.66,0,0,0-1,10.9v51.6a35.06,35.06,0,0,0,1,10.7,5.6,5.6,0,0,0,7.6,1.6,4.89,4.89,0,0,0,1.6-1.6,37.81,37.81,0,0,0,1.1-11.6V150.5h31.4v4.3a79.68,79.68,0,0,1-2.8,24.3,25.79,25.79,0,0,1-11.7,12.7,42.37,42.37,0,0,1-22.3,5.4,49.45,49.45,0,0,1-22.7-4.6,22.64,22.64,0,0,1-11.8-12.7,79.76,79.76,0,0,1-2.9-24.3V123.2a135.66,135.66,0,0,1,.9-18,23.75,23.75,0,0,1,5.3-11.6,29.8,29.8,0,0,1,12.3-8.7,53.71,53.71,0,0,1,40.9,1.8,24.38,24.38,0,0,1,11.9,12.2,68,68,0,0,1,2.8,22.9v10.7Z" transform="translate(-334.15 -81.67)"/><path class="cls-2" d="M941.9,179a8.45,8.45,0,1,0,.1,16.9,8.45,8.45,0,1,0-.1-16.9m.1,1.6a6.36,6.36,0,0,1,3.8,1.2,6.79,6.79,0,0,1,1,10.5,8,8,0,0,1-3.5,1.9,6.88,6.88,0,0,1-7.7-9.4,6.72,6.72,0,0,1,3.7-3.7,6.46,6.46,0,0,1,2.7-.5" transform="translate(-334.15 -81.67)"/><path class="cls-2" d="M940.4,186.8h1.3a3.79,3.79,0,0,0,1.5,0,1,1,0,0,0,.5-.4,1.42,1.42,0,0,0,.2-.6.6.6,0,0,0-.1-.4c0-.1-.1-.2-.2-.3s-.2-.2-.3-.2-.2-.1-.4-.1h-2.5Zm-1.7,4.8v-8.4h3.6a6.8,6.8,0,0,1,2,.2,2,2,0,0,1,1,.8,3.07,3.07,0,0,1,.2,2.1,1.79,1.79,0,0,1-.5.7,2.47,2.47,0,0,1-1.6.8,5.5,5.5,0,0,1,.9.7,11.32,11.32,0,0,1,1,1.3l1,1.6h-2l-1.2-1.8-.9-1.2a1,1,0,0,0-.5-.4h-1.1v3.6Z" transform="translate(-334.15 -81.67)"/></svg>