<svg id="Camada_1" data-name="Camada 1" xmlns="http://www.w3.org/2000/svg" viewBox="0 0 56 49.92"><defs><style>.cls-1{fill:#fff;}</style></defs><path class="cls-1" d="M34.72,6a2.55,2.55,0,0,0-.6.12c-2.41.43-3.67,3.51-2.61,5.61l-.39.35c-.46-.63-1.29-.46-1.94-.3a4.75,4.75,0,0,0-2.75,3.08,10.37,10.37,0,0,0-.33,4.89c-.64.31-1.37.11-2,.34A29.76,29.76,0,0,1,23.71,24a2.35,2.35,0,0,0,0,1.15,17.14,17.14,0,0,0,1.76.36,3.82,3.82,0,0,0-1,.38l-.26.21c-.19,1.69.39,3.33.34,5-.78-.17-.75.75-.86,1.26l.33.3a3.06,3.06,0,0,0-.26.55c.14.49,0,1.07.43,1.43-.22,1.44-.49,2.87-.64,4.32-.06.48.24,1,.07,1.42s-.57,1-.69,1.5a8.25,8.25,0,0,0-1.38,2.23,6.81,6.81,0,0,0-.43,2,4.21,4.21,0,0,0-.9,2.09c0,.43-.09.91.27,1.23-.29,1.53-.76,3-1.12,4.53a3.21,3.21,0,0,0,.18,1.74A10.08,10.08,0,0,0,23,55.8a2.33,2.33,0,0,0-.16-1.5,5.87,5.87,0,0,1,.72-4.4c.64-.12.87-.74,1-1.3.34-1.23,1.14-2.28,1.4-3.54,0-.4-.19-.8,0-1.18a2.4,2.4,0,0,1,.7-1.2,2,2,0,0,0,.72-1c.13-.37.59-.44.78-.76.34-.6.17-1.35.48-2A7.76,7.76,0,0,1,30,36.11c.37-.31.35-.84.66-1.19a4.65,4.65,0,0,0,.73,1.23,2.67,2.67,0,0,0,.94.12c.8,1.17,1.59,2.34,2.38,3.52a1.33,1.33,0,0,0,1.65.42,3.46,3.46,0,0,1,.5.85c0,.5-.12,1-.14,1.51a1.27,1.27,0,0,0-.46,1.13c.1.9.19,1.8.26,2.71a7.23,7.23,0,0,1,.36,1.84l.34.29c0,1,.22,2,.08,3a13.39,13.39,0,0,0-.72,2.8c.58.67,1.49.29,2.24.31a13.59,13.59,0,0,0,2.28.48,18.87,18.87,0,0,0,3.1-.11,1.88,1.88,0,0,0-.05-1.1,5.75,5.75,0,0,0-1.51-.69c-.56-.14-.88-.67-1.25-1.07s-.84-.83-.91-1.42a18.37,18.37,0,0,1,0-2.46c.13-.35.4-.65.38-1,.18-.77-.27-1.52-.1-2.29a28.42,28.42,0,0,0,.42-5.13l-.27-.38-.09-.84c-.22-.1-.48-.2-.52-.47A40.66,40.66,0,0,0,38.6,34a16.1,16.1,0,0,0-2.32-3.24A13.47,13.47,0,0,1,36,29.34c.09-.18.17-.36.26-.53.4.05.93.44,1.26.07a3.29,3.29,0,0,0,.65-1.95,27.42,27.42,0,0,0,.17-3.62,1.32,1.32,0,0,0-1.09-1.06,9.78,9.78,0,0,0,.28-1.19c1.43.73,2.87,1.74,4.51,1.88.91.14,1.35-.71,2-1.1.88-.63.65-1.85,1-2.74.26-.09.53-.17.8-.24a12.19,12.19,0,0,1-.44-2.6,3.17,3.17,0,0,0,1.24-1.33l.55-.28c1.36,0,2.71,0,4.06,0,.35,0,.22-.44.3-.65a1.43,1.43,0,0,0,1.16.14,7.58,7.58,0,0,1,2-.12c.44,0,.92-.09,1.29.22a8.77,8.77,0,0,1,1.7-.08l0-.68H56.43L56,13.32l-.29.22c-1,.08-2,0-2.95,0,0-.3.16-.65-.11-.9l-.23.28-.31-.38V11.05h-.36c0,.64,0,1.28,0,1.92h-.37l0-.48c-3.51,0-7,0-10.53,0,0-.08,0-.24,0-.32L40.27,12a1.82,1.82,0,0,0-.18-1c-.14.43-.22.89-.33,1.34-.8-.06-1.49.51-2.3.38,0-.47-.11-.93-.11-1.4.38-.13.85-.18,1.11-.51a3.86,3.86,0,0,0-.27-3l.09-.22c0-.08-.14-.24-.18-.33a8.19,8.19,0,0,1-1.59-.87A3.62,3.62,0,0,0,34.72,6Zm8.51,9.24a3.1,3.1,0,0,1,.21.86l-.25.26a5,5,0,0,1-1.31,1.72,8.55,8.55,0,0,0-.65-1.28c-.06-.36.45-.46.67-.63l.44-.25c-.3-.31,0-.5.26-.67ZM8,25a4,4,0,0,0-4,4V39a4,4,0,0,0,4,4h8a4,4,0,0,0,4-4H8V29H20a4,4,0,0,0-4-4Zm40,0a4,4,0,0,0-4,4v3a4,4,0,0,0,4,4h8v3H44a4,4,0,0,0,4,4h8a4,4,0,0,0,4-4V36a4,4,0,0,0-4-4H48V29H60a4,4,0,0,0-4-4Z" transform="translate(-4 -6)"/></svg>