<?xml version="1.0" encoding="utf-8"?>
<!-- Generator: Adobe Illustrator 26.0.0, SVG Export Plug-In . SVG Version: 6.00 Build 0)  -->
<svg version="1.1" id="Camada_1" xmlns="http://www.w3.org/2000/svg" xmlns:xlink="http://www.w3.org/1999/xlink" x="0px" y="0px"
	 viewBox="0 0 64 64" style="enable-background:new 0 0 64 64;" xml:space="preserve">
<style type="text/css">
	.st0{fill:#FFFFFF;}
</style>
<path class="st0" d="M62.8,38.7L62,38.4c-0.2-0.1-0.5-0.2-0.8-0.2c-0.1,0-0.3,0-0.4,0c0,0-0.1,0-0.1,0c-0.3-0.3-0.6-0.5-1-0.6
	l-0.1,0c-0.1,0-0.3-0.1-0.5-0.2c-0.5-0.3-0.9-0.5-1.4-0.5c-0.1,0-0.1-0.1-0.2-0.1c-0.2-0.1-0.4-0.2-0.7-0.2c-0.1,0-0.3,0-0.3-0.1
	c-0.4-0.3-0.9-0.4-1.5-0.4c-0.1,0-0.1,0-0.2,0c0,0-0.1-0.1-0.3-0.1c-0.4-0.2-0.8-0.3-1.1-0.4c-0.5-0.3-0.9-0.4-1.2-0.5
	c-0.4-0.1-0.6-0.2-0.9-0.2l-0.2,0c-0.1,0-0.2,0-0.3-0.1c-0.2-0.1-0.4-0.1-0.6-0.2c-0.4-0.5-1-0.8-1.7-0.8c-0.1,0-0.3,0-0.4,0
	c-0.2,0-0.3,0.1-0.4,0.1c0,0,0,0,0,0c-0.1,0-0.1-0.1-0.2-0.1c0,0,0-0.1,0-0.1c0.3-0.3,0.5-0.8,0.6-1.3l0.4-8.3c0-0.2,0-0.5-0.1-0.7
	c0.1-0.4,0.1-0.7,0-1.1l0-0.5c0-0.2,0-0.4-0.1-0.7c0-0.2-0.2-0.7-0.3-1c-0.2-0.4-0.5-0.9-0.6-1.1c-0.3-0.4-0.7-0.7-1.1-0.8
	c0,0,0,0,0,0l0,0c0-0.3-0.1-0.6-0.2-0.8l0-0.7c-0.1-1.1-0.9-1.9-2-1.9c0,0,0,0,0,0c-0.9,0-1.7,0.6-1.9,1.4c-0.5,0.3-0.8,0.9-0.9,1.5
	l-0.1,0.9c0,0.1-0.1,0.1-0.1,0.2l-0.2,0.4l0,0c-0.3,0.3-0.6,0.7-0.6,1.1l-0.2,0.9l-0.1-0.3c0-0.5,0.1-1.4,0.1-1.9c0-0.3,0-0.4,0.3-1
	c0.1-0.3,0.2-0.7,0.2-1l-0.1-0.8c0-0.2-0.1-0.4-0.1-0.5c-0.3-0.9-0.6-1.3-0.6-1.4c-0.1-0.1-0.1-0.2-0.2-0.2
	c-0.1-0.1-0.1-0.1-0.2-0.2c0,0,0,0,0,0l0,0c-0.2-0.8-0.8-1.5-1.6-1.6c-0.1-0.3-0.3-0.5-0.5-0.7c-0.2-0.9-1-1.6-2-1.6c0,0,0,0,0,0
	c-1.1,0-1.9,0.8-2,1.9l-0.1,1.7c-0.1,0.2-0.2,0.5-0.3,0.8l-0.2,0.2c-0.3,0.4-0.5,0.8-0.5,1.3c0,0.1,0,0.2,0,0.3
	c0,0.1-0.1,0.2-0.1,0.3c-0.1,0.3-0.2,0.6-0.2,0.9l0,0.8c0,0,0,0,0,0.1l-0.1-0.7c0.1-0.3,0.1-0.7,0-1l0-0.1c0,0,0-0.1,0-0.1
	c0-0.1,0-0.2,0-0.8c0-0.3-0.1-0.6-0.3-0.9c0-0.3-0.2-0.5-0.3-0.8c0-0.2-0.1-0.4-0.2-0.6l-0.1-0.7c0-0.6-0.4-1.2-0.9-1.5l0-0.1
	c-0.1-1-0.9-1.8-1.9-1.9c0,0,0,0-0.1,0c-1,0-1.9,0.7-2,1.8l-0.2,1.3c-0.1,0.1-0.1,0.2-0.2,0.3c-0.5,0.2-0.8,0.5-1,0.7
	c-0.2,0.1-0.3,0.3-0.4,0.4c0,0-0.1,0.1-0.1,0.1c-0.4,0.3-0.8,0.7-1.1,1.5c-0.4,0.3-0.6,0.8-0.6,1.3l-0.1,0.9c0,0,0,0,0,0L22,15.7
	c-0.1-1-0.9-1.8-2-1.8c0,0,0,0,0,0c-0.8,0-1.5,0.5-1.8,1.1c-0.4,0.1-0.7,0.3-0.9,0.6c-0.2,0-0.5,0.1-0.7,0.2c0,0,0,0,0,0
	c0,0-0.1,0-0.2,0.1c0,0-0.1,0-0.1,0c-0.3,0.1-0.6,0.2-0.9,0.4l-0.5,0.4c-0.4,0.4-0.7,0.9-0.8,1.5l0,0.3l-0.2,0.4
	c-0.1,0.3-0.2,0.5-0.2,0.8l0,0.6c0,0.1,0,0.2,0,0.3c0,0,0,0.1,0,0.1l0,0.2c0,0.1,0,0.1,0,0.2c0,0.1,0,0.1,0,0.2v1.5L13.6,24
	c0,0.1-0.1,0.3-0.1,0.4c-0.1,0-0.1,0-0.2-0.1c-0.2,0-0.3-0.1-0.5-0.1c0,0,0,0,0,0c-0.1-0.1-0.2-0.2-0.3-0.2
	c-0.2-0.1-0.4-0.2-0.6-0.3c-0.4-0.6-1-0.8-1.5-0.9c-0.1,0-0.1,0-0.2,0c-0.2,0-0.5,0-0.7,0.1c-0.2,0-0.4,0-0.6,0c-0.1,0-0.3,0-0.4,0
	c0,0,0,0,0,0c-0.3-0.1-0.6-0.1-1-0.1c-0.1,0-0.1,0-0.2,0c-0.2,0-0.4,0-0.6,0c-0.1,0-0.2,0-0.3,0c-0.3,0-0.6,0.1-0.9,0.2
	c-0.4-0.4-1-0.6-1.6-0.6c-0.4,0-0.8,0.1-1.1,0.3c-0.1,0-0.1,0.1-0.1,0.1c0,0-0.1,0-0.1,0c-0.1,0-0.2,0-0.3,0l0,0l0,0
	c-0.7,0-1.4,0.4-1.8,1c-0.4,0.6-0.5,1.4-0.3,2c0.2,0.5,0.6,1,1.1,1.3c0,1,0.5,1.9,1.5,2.3l0.1,0c0.3,0.1,0.8,0.4,1.5,0.4
	c0,0,0.1,0,0.1,0c0.2,0.2,0.4,0.4,0.5,0.5c0.3,0.3,0.6,0.4,1,0.5c0.1,0.3,0.2,0.6,0.5,0.8c0.4,0.5,1,0.8,1.8,0.8c0,0,0.1,0,0.1,0
	c0.6,0,1.1-0.1,1.5-0.3c0.1,0,0.2,0,0.3,0c0.2,0,0.4,0.1,0.8,0.4c0.4,0.4,0.8,0.7,1.6,0.9c0.1,0,0.2,0,0.4,0.1c0,0,0,0,0,0
	c0.5,0.2,0.9,0.3,1.2,0.3c0,0,0,0,0,0c0,0,0,0,0.1,0c0,0.2,0.1,0.4,0.1,0.5l0.1,7.6c0,0.7,0.3,1.3,0.8,1.6l0,1.8
	c0,0.2,0,0.4,0.1,0.6l0.1,0.2l0,1.7c0,0.1,0,0.2,0,0.4l0.2,0.9l0.2,3c0.1,1,0.9,1.9,2,1.9c0,0,0,0,0,0c1,0,1.9-0.8,2-1.8l0.2-2.9
	c0-0.2,0-0.4,0-0.6v-0.2l0.1-0.2c0.1-0.2,0.2-0.5,0.2-0.8c0.3-0.3,0.5-0.8,0.5-1.2l0.3-6.8c0-0.2,0-0.3,0-0.5l0-0.1
	c0.1-0.3,0.2-0.5,0.2-0.8l0-0.6c0-0.1,0-0.3,0-0.4v-0.2c0-0.1,0.1-0.2,0.1-0.3l0.1-0.7c0-0.1,0-0.1,0-0.2c0.1,0.1,0.3,0.1,0.4,0.1
	c0.1,0,0.2,0.1,0.3,0.1l1.3,0.7c0.1,0.1,0.2,0.1,0.3,0.1v0.6c0,0.2,0,0.4,0.1,0.7l0.3,0.8l0,1.8c0,0.2,0,0.3,0.1,0.5l0.2,0.7l0,2.4
	c0,0.1,0,0.1,0,0.2l0.3,4.1c0,0.3,0.1,0.6,0.2,0.8l0,0.5c0,0.2,0,0.5,0.1,0.7l0.1,0.2l0.2,2.2c0.1,1,0.9,1.8,2,1.9c0,0,0,0,0,0
	c1,0,1.9-0.8,2-1.8l0.3-3.6c0,0,0-0.1,0-0.1l0-2.1l0.1-0.4c0-0.2,0.1-0.4,0.1-0.5l0-0.9c0-0.2,0-0.3-0.1-0.5l-0.1-0.3l0-0.8
	c0.5-0.3,0.8-0.9,0.8-1.5l0.2-3c0.2,0.1,0.4,0.1,0.6,0.1c0.2,0,0.6,0,0.9-0.2c0.2,0,0.3-0.1,0.5-0.1l0,0.8l-0.1,0.6
	c-0.1,0.3,0,0.6,0,0.9l0.2,0.7l0.2,3.6c0,0.5,0.2,1,0.6,1.3l0.2,2.5c0.1,1,0.9,1.8,1.9,1.9c0,0,0,0,0.1,0c1,0,1.9-0.8,2-1.8l0.4-3.3
	c0-0.1,0-0.2,0-0.2v-0.9l0.2-0.6c0.1-0.2,0.2-0.5,0.2-0.8l0-3.9c0,0,0.1,0,0.1-0.1c0,0,0.1,0,0.2,0c0.1,0,0.2,0.1,0.4,0.1
	c0.1,0,0.1,0,0.2,0c0.3,0.3,0.8,0.4,1.2,0.4c0,0.5,0.3,1,0.6,1.3l0,0.9c0,0.2,0,0.3,0.1,0.5l0.2,0.7l0,2.3c0,0,0,0.1,0,0.1l0.3,4.7
	c0.1,1,0.9,1.9,2,1.9c0,0,0,0,0,0c1,0,1.9-0.8,2-1.8l0.2-2.5c0.5-0.3,0.8-0.9,0.8-1.5l0.4-6c0.3,0.2,0.6,0.3,0.7,0.3
	c0.1,0,0.2,0.1,0.4,0.1c0,0,0,0,0.1,0c0,0,0.1,0,0.1,0c0.4,0.4,0.8,0.5,1.2,0.6c0.4,0.2,0.9,0.4,1.4,0.4c0,0,0.1,0,0.1,0
	c0.1,0,0.1,0.1,0.2,0.1c0.3,0.2,0.7,0.3,1,0.3c0.6,0,1.2-0.2,1.6-0.7c0.1-0.1,0.2-0.2,0.2-0.3c0.2,0,0.3,0,0.4-0.1c0,0,0.1,0,0.1,0
	c0.1,0,0.1,0,0.2,0c0.1,0,0.2,0.1,0.2,0.1c0.4,0.1,0.8,0.2,1.1,0.2c0.2,0,0.5,0,0.7-0.1c0.2,0.1,0.4,0.1,0.6,0.1c0,0,0,0,0,0
	c0.3,0.2,0.6,0.2,0.8,0.3c0.2,0,0.4,0.1,0.6,0.1c0,0,0.1,0,0.1,0c0.1,0.1,0.3,0.2,0.6,0.3c0.2,0.1,0.5,0.1,0.6,0.1
	c0,0,0.1,0,0.2,0.1c0.3,0.1,0.5,0.2,0.8,0.2c0.1,0,0.1,0,0.2,0c0,0,0,0,0,0c0.1,0,0.1,0,0.2,0c0.5,0,1.1-0.2,1.7-0.9
	c0.4-0.4,0.5-0.9,0.5-1.5C64.1,40,63.6,39.1,62.8,38.7z M2.6,25.4C2.6,25.4,2.5,25.4,2.6,25.4C2.5,25.4,2.5,25.4,2.6,25.4
	c-0.2,0-0.5-0.2-0.5-0.4c0-0.1,0.1-0.3,0.2-0.3c0,0,0,0,0,0c0.2,0,0.4,0.1,0.5,0.4C2.9,25.3,2.8,25.4,2.6,25.4z M57,38.9
	c0,0,0.1,0,0.1,0c0.3,0,0.6,0.1,0.9,0.3c0,0-0.1,0.1-0.1,0.1c-0.1,0-0.1,0-0.2,0c-0.3,0-0.7-0.1-0.8-0.3C56.8,39,56.9,38.9,57,38.9z
	 M10.1,25c0-0.1,0.1-0.2,0.2-0.2c0.1,0,0.1,0.1,0.1,0.3c0,0.1,0,0.1,0.1,0.2c0,0-0.1,0-0.1,0C10.2,25.3,10,25.2,10.1,25z M3.4,24.7
	c0.2-0.1,0.3-0.2,0.4-0.3c0,0,0.1,0,0.1,0c0.2,0,0.3,0.1,0.4,0.3c0.1,0.5-0.2,0.9-0.7,0.9c0,0,0,0,0,0c-0.2,0-0.4-0.2-0.5-0.5
	C3,24.9,3.2,24.8,3.4,24.7z M4.6,27.7c-0.1,0.1-0.3,0.1-0.4,0.1c-0.3,0-0.5-0.2-0.7-0.3c-0.3-0.1-0.3-0.4-0.3-0.7
	c0-0.2,0-0.3,0.1-0.5c0.1-0.1,0.2-0.2,0.3-0.2c0.1,0,0.1-0.1,0.2-0.1c0,0,0,0,0,0c0.1,0,0.2,0.1,0.3,0.2c0,0,0,0,0.1,0
	c0,0,0,0,0.1,0c0,0,0,0,0.1,0c0.2,0.1,0.2,0.3,0.4,0.5c0.1,0.1,0.1,0.2,0.1,0.4C4.9,27.7,4.8,27.6,4.6,27.7z M8.9,30.2
	c-0.2,0.2-0.5,0.3-0.7,0.3c0,0,0,0-0.1,0c-0.3,0-0.4-0.1-0.4-0.6c0,0,0-0.1,0.3-0.1c0,0,0,0,0,0c0,0,0,0,0,0c0.2,0,0.1-0.1,0.2-0.1
	l0,0c0.1,0,0.4,0,0.5,0.2C8.9,30,9.1,30,9.2,30C9.1,30.1,9,30.1,8.9,30.2z M21.5,33.7c-0.3-0.1-0.5-0.2-0.5-0.3c0,0,0-0.1,0.1-0.1
	c0.2,0,0.9,0.5,1.2,0.8C22.1,34,21.8,33.8,21.5,33.7z M30.2,36.5c-0.1,0-0.2,0.1-0.2,0.1l-0.2,0l-0.3,0.2l-0.1,0l-0.1,0.1l0-0.1
	c0,0,0.3-0.2,0.3-0.3c0.1-0.1,0.1-0.4,0.1-0.4s0.1,0,0.2,0l0.1-0.2l0.2,0.3l0,0.2c0,0,0.3,0.2,0.2,0.2c0,0,0,0,0,0
	C30.4,36.6,30.3,36.5,30.2,36.5C30.2,36.5,30.2,36.5,30.2,36.5z M49.9,40.2c0,0-0.1-0.1-0.2-0.2C49.7,40,50,40,49.9,40.2
	C50,40.1,50,40.2,49.9,40.2z M51,40.5c-0.2,0-0.6-0.2-0.7-0.3c0,0,0.1,0,0.1,0c0.3,0,0.6,0.1,0.8,0.3C51.1,40.5,51.1,40.5,51,40.5z
	 M52.3,40.8C52.3,40.8,52.2,40.8,52.3,40.8c-0.3-0.1-0.5-0.3-0.7-0.4c-0.2-0.1,0-0.4-0.2-0.4c0,0,0.1-0.1,0.2-0.1c0,0,0.1,0,0.2,0
	c0.1,0.1,0.2,0.1,0.3,0.2c0.3,0.1,0.3,0.1,0.3,0.4c0,0,0.1,0.1,0.1,0.1C52.5,40.8,52.4,40.8,52.3,40.8z M58.9,40.5
	C58.9,40.5,58.9,40.5,58.9,40.5c-0.2,0-0.3-0.1-0.4-0.1c-0.2-0.1-0.5-0.2-0.7-0.2c0,0-0.1,0-0.1,0c0,0,0,0,0,0
	c-0.1,0-0.2-0.1-0.3-0.1C57.2,40,57,40,56.9,40c-0.1,0-0.2,0-0.3,0.1c-0.1,0.1-0.2,0.1-0.4,0.1c-0.1,0-0.3,0-0.4-0.1
	c-0.2-0.1-0.6-0.3-0.6-0.3s-0.1,0-0.2,0c-0.1,0-0.3,0-0.4,0c0-0.1,0-0.3-0.1-0.3c0,0,0,0-0.1,0c-0.2,0-0.1,0.1,0,0.2
	c-0.1,0-0.3,0.1-0.4,0.1c0,0,0,0,0,0c-0.1,0-0.3-0.1-0.4-0.3c-0.1-0.1-0.1-0.2-0.2-0.2c0,0,0,0,0,0c0,0-0.1,0.1-0.1,0.1h0
	c-0.1,0-0.2-0.2-0.3-0.2c-0.2,0-0.4-0.1-0.5-0.2c-0.2-0.1-0.3-0.1-0.3-0.1c0,0,0,0,0,0s-0.2-0.1-0.3-0.2c-0.1,0-0.2,0-0.2,0
	c-0.1,0-0.1,0.1-0.1,0.3c0,0.3-0.1,0.3-0.2,0.5c0,0,0,0-0.1,0c0,0-0.1,0-0.2-0.1c0,0,0,0,0-0.1c0.1-0.1,0.2-0.1,0.2-0.2
	c0-0.1,0.1-0.1,0-0.2c0,0,0-0.2-0.1-0.2c0,0,0,0,0,0c0,0-0.1,0.1-0.2,0.1c0,0,0,0,0,0c0,0-0.1-0.1-0.1-0.1c0,0,0,0,0,0
	c-0.1,0.1,0,0.2,0,0.2c0,0.2-0.1,0.4-0.3,0.4c0,0,0,0,0,0c-0.1,0-0.2,0-0.2-0.2c0-0.1,0-0.1,0-0.2c0-0.2,0-0.3,0-0.3
	s-0.7-0.2-0.9-0.3c0,0,0,0,0,0c-0.1,0-0.2,0-0.2,0.1c-0.1,0.2,0,0.3,0.1,0.4c0,0,0.1,0.1,0.1,0.1c0.1,0.1,0.2,0.1,0.1,0.3
	c-0.1,0.1-0.2,0.2-0.3,0.2c0,0-0.1,0-0.1,0c-0.2-0.1-0.3-0.1-0.6-0.1c-0.1,0-0.2-0.1-0.3-0.1c-0.3-0.2-0.6-0.3-0.9-0.3c0,0,0,0,0,0
	l0,0c-0.1,0-0.2-0.1-0.2-0.1c-0.2-0.2-0.3-0.3-0.5-0.3c-0.2,0-0.5,0-0.6,0c0,0,0,0,0,0c-0.1,0-0.3,0-0.3,0l0-0.2l-0.4,0l0.1,1.2
	l-0.5,7.3l-0.1-5.3l-0.1,0l-0.1,0.5v3.2l-0.3,1l-0.4,4.7l-0.3-4.7l0-2.5l-0.2-0.9l0-1.4l0.1-0.5l0-2.4l-0.2-0.6c0,0,0,0,0,0
	c0,0-0.1,0-0.2,0c0,0,0,0,0,0c-0.1,0-0.2,0-0.2,0l-0.1,2.6l-0.1-2.6c-0.2,0.1-0.3,0.2-0.4,0.2c-0.3,0.3-0.7,0.4-1,0.4
	c0,0-0.1,0-0.1,0c0,0,0,0-0.1,0c-0.1,0-0.2,0.1-0.3,0.1c0,0,0,0,0,0c0,0-0.1,0-0.1-0.1c-0.1-0.2-0.2-0.2-0.4-0.2
	c-0.3-0.1-0.6-0.1-0.9-0.2c-0.2-0.1-0.4-0.1-0.7-0.1c-0.2,0-0.4,0-0.7,0.1c0,0-0.1,0-0.1,0c0,0,0,0,0,0c-0.1-0.1-0.2-0.1-0.2-0.1
	c-0.1,0-0.2,0-0.3,0.1c-0.1,0-0.1,0-0.1,0c-0.2,0-0.2-0.2-0.2-0.2l-0.1-0.1L36.5,39l0,4.9l-0.4,0.9l0,1.3l-0.4,3.3l-0.3-4.4l0-2.5
	l-0.3-0.7c0,0-0.2,2.8-0.2,3.9l-0.2-3.8L34.5,41l0.2-0.8l0-2.7l-0.1-0.1c0,0-0.2-0.5-0.3-0.5s-1.1-0.1-1.1-0.1s-0.7,0.2-1,0.3
	c-0.1,0-0.2,0-0.2,0c-0.1,0-0.2,0-0.3,0c0,0-0.1,0.1-0.2,0.1c-0.1,0-0.1,0.1-0.2,0.1c-0.1,0-0.1,0-0.2-0.1c-0.2-0.2-0.3-0.2-0.3-0.2
	c0,0,0,0,0,0s-0.3,0.1-0.3,0.1c0,0,0,0,0,0c-0.1,0-0.2-0.1-0.3-0.1c0,0,0-0.1,0-0.1l0.2-0.1l0.2,0.1l0.1,0.1l0.1,0l0.1,0.1
	c0,0,0.1,0,0.1,0c0,0,0,0,0,0l0,0c0,0,0-0.3,0-0.3l0,0.3c0,0,0,0,0,0c0.1,0,0.2-0.2,0.2-0.3c0-0.1-0.1-0.3-0.1-0.3l-0.1,0l-0.1,0.1
	L31,36.5l-0.3-0.2l-0.4,0l-0.3-0.5l-0.2-0.4c-0.1,0-0.2,0-0.2,0c0,0-0.1,0-0.1,0c0,0,0,0,0,0c-0.1,0-0.2-0.1-0.2-0.1
	s-0.1,0.1-0.4,0.1c0,0,0,0-0.1,0l-0.1,1.3c0,0,0.3,0.1,0.3,0.1c0,0.1-0.1,0.2-0.1,0.2s-0.1-0.1-0.1-0.1l-0.1,0l-0.4,5.4l0-5.6
	l-0.3-0.1L28,37.1l0,5l-0.4,1.2l0,1.6l0.1,0.5l0,0.9L27.6,47l0,2.4L27.3,53l-0.2-2.4l-0.2-0.5l0-4.1l-0.1-0.8c0,0-0.1,2.5-0.1,3.5
	l-0.3-4.1l0-2.7l-0.2-1l0-2.2l-0.4-1.1v-2c0,0-0.4-0.1-0.6-0.2c-0.1-0.1-0.3-0.3-0.3-0.3l-0.5,0l-1.6-0.9l-0.2,0l-0.3-0.4l0.3,0.3
	c0,0,1.1,0.2,1.5,0.3c0,0,0.1,0,0.1,0c0.1,0,0.2,0,0.1-0.3c0,0,0-0.1,0-0.1c0.1-0.2,0.1-0.4-0.2-0.4c0,0-0.1-0.1-0.1-0.1
	c0-0.1,0-0.3-0.1-0.3c0,0,0,0,0,0c0,0,0,0,0,0c-0.2,0-0.4-0.1-0.5-0.1c0,0-0.1,0-0.1,0c-0.1,0-0.1,0-0.1,0S23,33,23,33
	c0,0-0.1,0-0.1,0c0,0-0.1,0-0.1,0c0,0,0,0,0,0c0,0,0,0-0.1,0c-0.3,0-0.3,0.2-0.4,0.4c-0.3-0.4-0.5-0.3-0.7-0.4
	c-0.1-0.1-0.4-0.1-0.4-0.1S21,32.9,20.9,33c0,0-0.1,0-0.1,0c0,0-0.1,0-0.1,0c-0.1-0.1-0.3-0.2-0.4-0.2c0,0-0.1,0-0.1,0
	c0,0,0,0-0.1,0c-0.2,0-0.3-0.1-0.3-0.1l0,0.5L19.6,34l-0.1,1.7l-0.1,0.7l0-3.7l-0.1,0l0,5l0,0.1l0,0.6L19,38.9l0,0.6l0.1,0.2
	l-0.3,6.8l-0.1-4.7l-0.1-0.2l-0.1,2.9l-0.3,0.9l0,2.3l-0.3,0.6v0.9l0,0.1l-0.2,2.9l-0.2-3.2l-0.2-1l0-2l-0.1-0.5l0-2.2L17,41.8
	l0-3.3l-0.1-0.5l0-2l-0.1-0.5l-0.4,6.6l-0.1-8.3l-0.1-0.1c0,0,0-1,0-1.4c-0.1,0-0.2,0-0.3,0c-0.4,0-0.8-0.2-1.2-0.3
	c-0.2-0.1-0.8,0-0.9-0.1c-0.2-0.1-0.4-0.2-0.4-0.2s-0.1,0-0.2,0c-0.1,0-0.2,0-0.3,0c-0.4-0.1-0.5-0.2-0.7-0.4c-0.6-0.6-1.2-0.9-2-1
	c-0.3,0-0.5-0.1-0.6-0.3c-0.3-0.3-0.6-0.4-1-0.4c-0.1,0-0.1,0-0.2,0c0,0-0.1,0-0.1,0c-0.1,0-0.2,0-0.2,0c-0.4-0.1-0.7-0.3-1.1-0.4
	c-0.1-0.1-0.4-0.2-0.4-0.2s-0.1,0.1-0.2,0.1c0,0,0,0,0,0c0,0-0.1,0-0.1,0C6,28.7,5.8,28.4,5.7,28c0-0.1,0-0.2,0-0.3
	c-0.2-0.2-0.4-0.4-0.4-0.7c0-0.3,0-0.7,0-1c0-0.5,0.2-0.8,0.7-1.1c0.2-0.1,0.4-0.2,0.6-0.3c0,0,0.1,0,0.1,0c0.2,0,0.5,0,0.7,0.1
	c0.7,0,0.5,0.1,0.7,0.1c0.1,0,0.2,0,0.3,0c0.1,0,0.1,0,0.2,0c0.1,0,0.2,0,0.4,0c0.6,0,0.8,0.1,1.2,0.4c0.5,0.3,1,0.1,1.3,0.3
	c0.1,0.1,0.3,0.3,0.6,0.4c0.4,0.1,0.5,0.1,0.8,0.2c0.6,0.2,0.8,0.2,1.1,0.2c0.1,0,0.2,0,0.3,0l0,0.1l0.2,0l0.1-0.1l1.3,0l-0.1-1.2
	l-0.3-0.8l0.4-1.5v-1.7l0.1,0l0-0.2l-0.1-0.1c0-0.1,0-0.2,0-0.2l0.1,0l0-0.3l-0.1-0.1l0-0.6l0.4-0.8l0-0.7l0.5-0.4
	c0,0,0.2,0,0.3-0.1c0.4-0.1,0.5-0.2,0.5-0.2c0.7-0.1,1.1-0.2,1.1-0.2l0.1-0.5c0.1,0.2,0.2,0.7,0.2,0.7l0.3-0.1c0,0,0.2,0.3,0.3,0.3
	l0.1-0.5l0.2,0.1l0.1-1.5l0.2,2.7l0.1,0.2c0,0,0.1-0.5,0.1-0.5c0,0.3,0.1,1,0.1,1s0.3,0.6,0.4,0.9c0,0-0.1,0.3-0.2,0.9
	c-0.1,0.1-0.3,0.3-0.3,0.7c0,0.4,0.1,0.7,0.1,0.7l-0.2,0.2l0,3L20,27.5l1.2,0.1l0.4,0.2l0.6,0l1.1,0.3l0.2,0l0.4,0.3l0.3,0
	c0,0,0,0.1,0.1,0.1l-0.1,0.2l0.1,0.1l0.2,0L25,29l0.3-0.1l-0.2-3.5l0.2-0.3l0-1l-0.5-1.4l0-2.5l-0.1-0.1l0,1.3l-0.2-2.1l-0.2-0.3
	l0-0.5l-0.1,0c0-0.1,0.1-0.4,0.1-0.4l-0.1-0.1l0.1-1.4c0,0,0.2-0.1,0.4-0.6c0.2-0.4,0.4-0.6,0.6-0.8c0.2-0.1,0.3-0.3,0.5-0.5
	c0.2-0.2,0.2-0.3,0.6-0.4c0.3-0.1,0.6-0.4,0.6-0.4l0.1,0.1l0.3-0.8l0.2-0.1l0.3-2.1l0.1,2.5l0.1,0l0.1-0.9l0.2,1.6l0.1,0l0-0.5
	l0.1-0.2l0.1-1l0.1,1.4l0.1,0.2L29,14l0.1,0.7l0.2,0.1l0,0.3l0.2,0.4c0,0,0,0.5,0,0.6c0,0.1,0,0.4,0,0.4l0.1,0.4l-0.1,0.2l0,0.2
	l0.1,0l0,1.4l-0.1,0.7l0.1,0.4l-0.3,4.7l0-3.4L29,21.9l0,3.4l0.2,0.8l0,3.8c0,0,0.1-0.1,0.3-0.1c0,0,0,0,0,0c0.3,0,0.5,0.2,0.9,0.3
	c0.1,0.1,0.3,0.3,0.5,0.4c0,0,0.3,0.1,0.3,0.1l0.3,0.3c0,0,0.1,0,0.1,0c0.2,0,0.4,0.1,0.5,0.1c0.4,0.1,0.7,0.3,0.9,0.6
	c0.1,0.2,0.3,0.3,0.5,0.4c0.1,0.1,0.5,0.1,0.6,0.1c0.1,0,0.1,0,0.1,0l0-3.6L34,27.2l0-2.7l0.3-0.7l0-2.2l-0.1-0.3l0-0.8l-0.1,0.1
	c0,0-0.1,2.5-0.1,3.4c0,0-0.2-4.6-0.2-4.6L33.6,19c0,0,0.2-0.5,0.2-0.6c0-0.2-0.1-0.3-0.1-0.3l0-0.8c0,0,0.2-0.3,0.2-0.8
	c0-0.3,0-0.6,0-0.6l0.6-0.7l0-0.5l0.2-0.3l0.1-2.3l0.1,1.7l0.3,0.9l0.1-0.1V14l0.1,0.2l0-1l0.1,0.9l0.2,0.4l0.3-0.1l0.6,0.3l0.2,0
	l0.1-0.4l0.1,0.7l0.2,0.1l0.1,0.2c0,0,0.3,0.2,0.3,0.2c0.1,0.2,0.4,0.9,0.4,0.9l0.1,0.8c-0.4,0.9-0.5,1.4-0.5,1.9
	c0,0.6-0.1,2.1-0.1,2.1l0.3,1.2l-0.2,7.4l-0.2,0.7c0,0,0-3.5,0-5.1l-0.1-0.1l-0.2,0.9l0,4.9l-0.1,0.9l0,0.9c0,0,0.1,0.1,0.3,0.1
	c0.3,0.2,0.7,0.4,1.1,0.4c0.1,0,0.3,0,0.4,0c0,0,0.1,0,0.1,0c0,0,0,0,0,0c0.2,0,0.3,0.1,0.4,0.3c0.1,0.2,0.2,0.2,0.4,0.3
	c0.2,0,0.3,0,0.6,0c0.2,0,0.2,0.2,0.6,0.2c0.3,0,0.5,0.1,0.7,0.3c0.2,0.1,0.6,0.3,0.6,0.3l-0.1-2.6l0-2.4l-0.1-0.6L42.2,29l-0.2,1.7
	l-0.3-2.3l0-2.8l0.2-0.7l0-1.1l-0.2-0.8l0-0.3l-0.1-0.1l0-0.2l0-0.1l0.3-1.5l0.4-0.4l0.3-0.8l0.1,0.3l0.1,0.1L43,18l0.3,1.6l0.2,0.2
	l0.1-0.1l0.2-2.8l0.2,2.6l0.1-1l0.1,1.2l0.1-0.1l0.1,0.2l0.1,0l0.1,0.1l0.2,0c0.2,0.2,0.4,0.2,0.5,0.3c0.2,0.1,0.4,0.1,0.4,0.1
	s0.3,0.5,0.4,0.8c0.1,0.3,0.3,0.8,0.3,0.8l0,0.9l0.1,0.3L46,23.7l0.3,0.4l-0.4,8.3L45.8,27l-0.1,0.3l0,1.5l-0.3,0.8c0,0,0,2.5,0,3.7
	c0,0.4,0,0.6,0,0.6L45,34.8l0,0.6l0.3,0.2c0.1,0,0.3,0,0.4,0c0.3,0,0.6,0.1,0.9,0.2c0.1,0.1,0.3,0.1,0.5,0.2c0.1,0,0.1,0,0.2,0
	c0,0,0.1,0,0.1,0c0,0,0.1,0,0.1,0c0.1,0,0.3,0.2,0.4,0.2c0,0,0,0,0,0c0.1,0,0.2-0.3,0.3-0.3c0,0,0,0,0,0c0.1,0,0.3,0.2,0.3,0.3
	c0,0.1,0,0.3,0,0.3s0.3,0.2,0.5,0.2c0,0,0,0,0,0c0.7,0,1,0.2,1.6,0.4c0.4,0.1,0.6,0.1,1,0.2c0.1,0,0.4,0.1,0.5,0.2
	c0.1,0,0,0.2,0.3,0.3c0.2,0,0.6,0,0.9,0.2c0.5,0.3,0.9,0.4,1.2,0.4c0,0,0.1,0,0.1,0c0,0,0,0,0.1,0c0.1,0,0.3,0,0.4,0.1
	c0.4,0.2,0.8,0.4,1.2,0.4c0.1,0,0.2,0.1,0.3,0.1c0,0-0.2,0.1-0.3,0.1c0,0,0,0,0,0c-0.1,0-0.3-0.1-0.4-0.1c0,0,0,0,0,0
	c-0.1,0-0.1,0-0.1,0c-0.3,0-0.3,0-0.6-0.1c0,0-0.1,0-0.1,0c-0.1,0-0.1,0.1-0.2,0.2C55,38.9,54.9,39,54.8,39c0,0,0,0,0,0
	c-0.2,0-0.3-0.2-0.5-0.2c-0.6-0.1-0.5-0.2-1-0.4c-0.1,0-0.5-0.1-0.7-0.1c-0.6,0-0.3-0.2-0.7-0.3c-0.3,0-0.3-0.2-0.5-0.3
	c0,0,0,0-0.1,0c-0.1,0-0.1,0-0.3,0c0,0-0.1,0-0.1,0c0,0,0,0,0,0c0,0,0,0-0.1,0c-0.1,0-0.1,0-0.1,0c-0.5-0.4-1.1-0.3-1.6-0.4
	c-0.6,0-0.7-0.2-1-0.2c0,0,0,0,0,0c-0.2,0-0.6,0.2-0.6,0.2s0,0.2,0,0.2c0.1,0.2,0.3,0.4,0.5,0.4c0.1,0,0.1,0,0.2,0
	c0.1,0,0.2,0,0.2,0c0.1,0,0.2,0,0.3,0.2c0,0,0.1,0,0.1,0c0,0,0.1,0,0.1,0c0,0,0.1,0,0.1,0c0,0,0.1,0,0.1,0c0.1,0,0.2,0.1,0.3,0.1
	c2.4,0.5,2.4,0.7,2.9,0.7c0.3,0,0.4,0,0.8,0c0.1,0,0.2,0.3,1,0.5c0.2,0.1,0.3,0.1,1,0.1c0.2,0,0.7,0.4,1,0.4c0,0,0,0,0,0
	c0.1,0,0.2,0,0.2-0.1c0-0.1-0.1-0.2-0.1-0.2c-0.2-0.1-0.3-0.1-0.5-0.2c-0.1,0-0.2-0.1-0.2-0.1c0,0-0.1-0.1,0-0.1c0,0,0,0,0.1,0
	c0,0,0.1,0,0.1,0s0.3,0.2,1,0.3c0.2,0.1,0.7,0.4,0.9,0.5c0,0,0,0,0,0c0.5,0,0.7,0.1,0.8,0.2c0.1,0.1,0.1,0.1,0.3,0.1
	c0,0,0.1,0,0.1,0c0.1,0,0.2,0,0.3,0c0.1,0,0.1,0,0.1,0C59.1,40.4,59.1,40.5,58.9,40.5z M58.9,39.7c-0.2,0-0.3-0.1-0.5-0.2
	c0,0,0,0,0,0c0.4,0,0.6,0.1,0.8,0.2C59.1,39.7,59,39.7,58.9,39.7z M61.7,41.2C61.7,41.2,61.7,41.2,61.7,41.2c-0.1,0-0.1-0.1-0.2-0.1
	c0,0,0,0,0,0c-0.1,0-0.3,0.1-0.3,0.1c0,0,0,0,0,0c-0.2-0.1-0.5-0.2-0.8-0.2c0,0-0.1,0-0.2,0c-0.1,0-0.1-0.1-0.2-0.2
	c-0.1-0.1-0.2-0.1-0.3-0.2c-0.1-0.3-0.2-0.3-0.4-0.4c0,0-0.1,0-0.1-0.1c0,0,0-0.1,0-0.1c0,0,0.1,0,0.1,0c0.5,0,0.9,0.1,1.2,0.5
	c0,0,0.2,0.1,0.3,0.1c0.1,0,0.2,0,0.2,0c0.1,0,0.1,0,0.1,0c0.1,0,0.2,0.1,0.5,0.1c0.1,0,0.1,0.2,0.1,0.2
	C61.9,41.1,61.8,41.2,61.7,41.2z M61.9,40.6c-0.4,0-1.1-0.2-1.1-0.2l0-0.1l0.3,0.1l0.2-0.1C61.2,40.3,61.8,40.5,61.9,40.6
	C62,40.6,62,40.6,61.9,40.6z M25.1,33.9c0.1,0.1,0.1,0.1,0.1,0.2c0,0,0,0.2,0,0.2c0,0.2,0,0.4-0.2,0.4c0,0,0,0-0.1,0
	c-0.1,0-0.3-0.2-0.3-0.5c0-0.2,0.1-0.3,0.2-0.3c0,0,0.1,0,0.1,0C25,33.8,25.1,33.8,25.1,33.9z M28.4,35.5l0,1l-0.2-0.1l0-1.1
	L28.4,35.5z M46.8,37.5c0,0.1,0,0.2-0.1,0.3c0,0-0.1,0-0.1,0c0,0-0.1,0-0.1,0c-0.3,0-0.6-0.1-0.9-0.1c-0.2,0-0.4,0-0.5,0
	c-0.1,0-0.1,0-0.1,0c-0.1-0.2,0-0.5,0-0.5c0.2,0.1,0.4,0.1,0.6,0.1c0.2,0,0.5,0,0.7-0.1c0,0,0.1,0,0.1,0
	C46.7,37.2,46.8,37.3,46.8,37.5z M42.5,36.3c0,0.1,0,0.2,0,0.3c-0.3,0-0.6,0.1-0.9,0.1c-0.3,0-0.6,0-1-0.2c0,0-0.1,0-0.2,0
	c-0.1,0-0.3,0-0.4,0.1c-0.1,0-0.2,0.1-0.4,0.1c0,0-0.1,0-0.2,0c-0.1,0-0.2,0-0.2-0.1c0-0.3-0.1-0.4-0.1-0.4c-0.1,0-0.3,0-0.3,0
	l0-0.3c-0.2,0-0.3-0.1-0.7-0.1c0,0,0,0,0,0c-0.1-0.1-0.3-0.2-0.5-0.3c-0.1-0.3-0.3-0.4-0.5-0.5c0,0-0.1-0.1-0.1-0.1c0,0,0,0,0-0.1
	c0.1,0,0.1,0,0.2,0.1c0.1,0.1,0.2,0.2,0.2,0.3c0.2,0.4,0.5,0.6,0.9,0.6c0.1,0,0.1,0,0.2,0c0,0,0,0,0,0c0.3,0,0.5-0.1,0.5-0.1
	s0.3,0.1,0.5,0.1c0,0,0,0,0,0c0,0,0,0,0,0c0.1-0.1,0.2-0.1,0.3-0.1c0.2,0,0.4,0.1,0.7,0.2c0.1,0.1,0.3,0,0.4,0.1
	c0.1,0,0.1,0.2,0.2,0.2c0,0,0,0,0,0c0,0,0-0.1,0-0.2c0,0,0.1,0,0.1,0c0.1,0.1,0.2,0.2,0.3,0.4c0.1,0.1,0.2,0.2,0.3,0.2
	c0,0,0.1,0,0.1,0c0.1,0,0.2,0,0.2,0C42.5,36.2,42.5,36.3,42.5,36.3z"/>
</svg>
