<?xml version="1.0" encoding="utf-8"?>
<!-- Generator: Adobe Illustrator 26.0.0, SVG Export Plug-In . SVG Version: 6.00 Build 0)  -->
<svg version="1.1" id="Camada_1" xmlns="http://www.w3.org/2000/svg" xmlns:xlink="http://www.w3.org/1999/xlink" x="0px" y="0px"
	 viewBox="0 0 2500 697" style="enable-background:new 0 0 2500 697;" xml:space="preserve">
<style type="text/css">
	.st0{fill:#FFFFFF;}
</style>
<path class="st0" d="M0.6,348.5C0.6,540.2,1.1,697,1.7,697c0.9,0,129.8-23.9,145.6-27l8.2-1.6V412.5h98v-23.4
	c0-12.8,0.5-46.2,1.1-74.3l0.9-50.9h-100V151.7h57.7c31.8,0,57.7-0.3,57.7-0.8c0-1.7,12.6-136.7,13.4-143.5l0.9-7.4H0.6V348.5z
	 M2364.7,20.4l-126.1,10.4v629.7l5.2,0.8c4.6,0.8,248.8,18.5,253.7,18.3c1.4,0,1.9-16.8,1.9-78.2v-78.2h-107.5V409.3h91.7V273.4
	h-94.8v-90.1l3.6-0.6c1.9-0.5,18-1.1,35.9-1.7c17.9-0.5,41.1-1.3,51.8-1.9l19.3-0.9V9.5l-4.3,0.2C2492.6,9.8,2434,14.5,2364.7,20.4z
	 M1555,42.2c1.6,15.8,19.6,254,19.3,254.3c-0.2,0.3-23.4-56.7-51.7-126.8c-28.1-70-51.8-128-52.5-129.1
	c-0.9-1.7-44.6,6.3-116.2,21.5l-6.8,1.4v543.4h140.7l-0.8-11.4c-1.6-21.2-7.4-196.3-6.8-203.3c0.5-6.2,5.2,4.6,50.1,113
	c27.2,65.9,50.3,120.4,50.9,121.4c0.9,0.9,22.9-0.5,60.2-3.6c32.4-2.8,59-5.4,59-5.5c0.2-0.2-0.6-114.1-1.7-253.2
	c-1.1-139.1-2.1-270.4-2.1-292.1l-0.2-39h-142.4L1555,42.2z M442.4,42.8c-94.5,6.3-146.5,71-162.9,202.1
	c-3.3,27.2-4.7,119.5-2.4,151.7c7.9,104.6,36.2,172.6,86.5,207.2c27,18.5,67.6,28.4,107.8,26.1c45.7-2.5,76.8-15.5,104.8-43.5
	c22.9-22.9,35.4-44.4,47.4-81.1c16.8-51.2,24.3-127.7,20.5-207.4c-4.3-89.1-17.7-144.6-45.4-187.1c-26.4-40.5-68.1-64.6-116.8-67.6
	c-7.7-0.5-16-0.9-18.2-1.3C461.5,41.9,452,42.2,442.4,42.8L442.4,42.8z M464.7,167.1c11.5,12.5,16.4,62.3,16.4,168.8
	c0,131.2-8.2,185.7-26.2,174c-7.7-5.2-13.6-30.7-16.4-72.9c-2.1-30.8-2.1-172,0-201.5c3-41.7,8.4-64.8,16.4-70.3
	C459.3,162,460.1,162.2,464.7,167.1z M664.4,330.2V618h144.9l0.9-20.1c0.6-11.2,1.9-47.6,2.8-81.1c0.9-33.5,2.2-62.9,2.8-65.3
	c0.8-3.3,7.6,18,28.4,90.1c15.2,52,28,95.1,28.6,95.8c1.3,1.4,149.5-10.3,151.1-11.9c0.5-0.6-16-52.3-36.5-115.2l-37.3-114.1l7.9-7
	c26.2-22.9,47.9-67.2,54.1-111c2.7-19.1,0.9-66.5-3.2-84.1C993.3,125.5,951.4,72.1,898,52.2c-23.2-8.5-21.3-8.4-131.2-9l-102.4-0.6
	V330.2z M827.4,178.8c11.2,5.5,20.4,19.8,25.3,39.4c3.3,13.1,2.8,54.7-0.8,68c-6.8,25-18.8,39.5-36.8,45l-3.6,0.9V173.9l5.2,1.1
	C819.3,175.4,824.2,177.2,827.4,178.8L827.4,178.8z M1016.9,117.7v73.5h80.6v423.6h151.7V216.5h82.2v-147l-3.5-0.6
	c-3.3-0.8-304.7-24.8-309-24.7C1017.4,44.3,1016.9,60.1,1016.9,117.7z M1729.7,346.9v286.9h156.5V60.1h-156.5V346.9z M2064.7,80
	c-85.7,4.6-156.9,8.4-158.4,8.4c-2.7,0.2-2.8,4.7-2.8,74.4v74.3h80.6v415.7h153.3V219.7h85.3v-74.3c0-40.9-0.5-74.1-1.1-74.1
	C2220.9,71.4,2150.4,75.2,2064.7,80z"/>
</svg>
