<svg id="Camada_1" data-name="Camada 1" xmlns="http://www.w3.org/2000/svg" viewBox="0 0 40 40"><defs><style>.cls-1{fill:#f97f00;}.cls-2{fill:#fff;}</style></defs><path class="cls-1" d="M15.52,12.88a13.91,13.91,0,0,1,16.64-.23L36,8a19.86,19.86,0,0,0-24.45.34Z" transform="translate(-4 -4)"/><path class="cls-2" d="M37.54,9.32,33.7,13.93A14,14,0,1,1,14,14.2l-4-4.5a20,20,0,1,0,27.49-.38Z" transform="translate(-4 -4)"/><path class="cls-2" d="M33,36l-8-8V15l3,8,9,9ZM15,36l8-8V15l-3,8-9,9Z" transform="translate(-4 -4)"/></svg>